<svg xmlns="http://www.w3.org/2000/svg" width="62.705" height="57.882" viewBox="0 0 62.705 57.882">
  <g id="Group_1951" data-name="Group 1951" transform="translate(0 0)">
    <path id="Path_2452" data-name="Path 2452" d="M73.743,146.177H20.685a2.445,2.445,0,0,0-2.412,2.412v36.176a2.446,2.446,0,0,0,2.412,2.412H73.743a2.445,2.445,0,0,0,2.411-2.412V148.589a2.444,2.444,0,0,0-2.411-2.412ZM53.732,157.52a2.317,2.317,0,0,1-1.7.716H42.39a2.412,2.412,0,0,1,0-4.824h9.648a2.4,2.4,0,0,1,1.695,4.108Z" transform="translate(-15.861 -129.295)" fill="#c8a518"/>
    <path id="Path_2453" data-name="Path 2453" d="M61.99,18.987a2.317,2.317,0,0,0-1.7-.716H2.412a2.317,2.317,0,0,0-1.7.716A2.317,2.317,0,0,0,0,20.683v9.647a2.318,2.318,0,0,0,.716,1.7,2.317,2.317,0,0,0,1.7.716H60.293A2.444,2.444,0,0,0,62.7,30.329V20.683A2.318,2.318,0,0,0,61.99,18.987Z" transform="translate(0 -18.271)" fill="#c8a518"/>
  </g>
</svg>
