<svg xmlns="http://www.w3.org/2000/svg" xmlns:xlink="http://www.w3.org/1999/xlink" width="198.793" height="198.781" viewBox="0 0 198.793 198.781">
  <defs>
    <linearGradient id="linear-gradient" x2="1" y2="0.325" gradientUnits="objectBoundingBox">
      <stop offset="0" stop-color="#e5670f"/>
      <stop offset="1" stop-color="#d48f12"/>
    </linearGradient>
  </defs>
  <g id="Group_1959" data-name="Group 1959" transform="translate(-416.104 -499.609)">
    <path id="Subtraction_35" data-name="Subtraction 35" d="M23570.4,21897.781a100.16,100.16,0,0,1-20.031-2.016,99.4,99.4,0,0,1-77.348-77.344,100.448,100.448,0,0,1,0-40.062,99.375,99.375,0,0,1,27.1-50.25,99.951,99.951,0,0,1,14.711-12.137,98.867,98.867,0,0,1,35.539-14.949,100.163,100.163,0,0,1,40.063,0,98.09,98.09,0,0,1,18.654,5.789,99.379,99.379,0,0,1-38.686,190.969Zm0-186.48a87.761,87.761,0,0,0-17.555,1.77,86.6,86.6,0,0,0-31.135,13.1,87.333,87.333,0,0,0-12.891,10.637,86.867,86.867,0,0,0-23.75,44.035,87.922,87.922,0,0,0,0,35.1,87.044,87.044,0,0,0,67.775,67.766,87.771,87.771,0,0,0,35.109,0,85.757,85.757,0,0,0,16.348-5.07,87.145,87.145,0,0,0,51.434-62.7,86.919,86.919,0,0,0-13.111-66.246,87.334,87.334,0,0,0-38.322-31.555,86.083,86.083,0,0,0-16.348-5.074A87.834,87.834,0,0,0,23570.4,21711.3Z" transform="translate(-23054.898 -21199.391)" fill="url(#linear-gradient)"/>
    <g id="artificial-intelligence" transform="translate(441 524)">
      <g id="Group_1748" data-name="Group 1748">
        <g id="Group_1747" data-name="Group 1747">
          <path id="Path_2440" data-name="Path 2440" d="M150,79.257a25.018,25.018,0,0,0-11.836-21.223,24.872,24.872,0,0,0,2.447-10.775c0-10.8-13.338-19.555-22.071-24.127A25.231,25.231,0,0,0,74.793,8.186,24.823,24.823,0,0,0,56.33,0,24.977,24.977,0,0,0,31.45,23.3c0,.023,0,.046-.006.069-.526.268-1.165.6-1.944,1.025a72.566,72.566,0,0,0-7.893,4.924C13.5,35.186,9.389,41.222,9.389,47.258a24.871,24.871,0,0,0,2.446,10.775,24.949,24.949,0,0,0-.791,41.939A24.946,24.946,0,0,0,21.9,130.537C25.162,141.894,38.133,150,53.4,150a38.637,38.637,0,0,0,21.587-6.4A37.733,37.733,0,0,0,96.6,150c15.263,0,28.235-8.106,31.493-19.463a24.946,24.946,0,0,0,10.859-30.564A24.869,24.869,0,0,0,150,79.257ZM53.4,144.141c-12.906,0-24.127-6.957-26.1-16.182a2.93,2.93,0,0,0-1.545-2,19.014,19.014,0,0,1-9.655-11.4,17.424,17.424,0,0,0,7.838,1.841h.009a17.9,17.9,0,0,0,11.152-3.99,2.93,2.93,0,1,0-3.717-4.53,11.729,11.729,0,0,1-16.013-1.067,18.837,18.837,0,0,1,2.02-6.671,2.93,2.93,0,0,0-1.247-3.946,19.09,19.09,0,0,1,.921-34.317A2.93,2.93,0,0,0,18.3,57.615a19.017,19.017,0,0,1-3.057-10.357c0-6.946,9.967-13.879,16.62-17.509a25.072,25.072,0,0,0,9.751,15.343,3.02,3.02,0,0,0,4.095-.633,2.93,2.93,0,0,0-.634-4.095,19.092,19.092,0,0,1,11.25-34.5,19.009,19.009,0,0,1,15.557,8.05v.3c-.012,1.932-.017,6.217-.011,15.9h-16.3a2.93,2.93,0,0,0-2.072,5,11.767,11.767,0,0,1,0,16.616,12.017,12.017,0,0,1-16.6,0,2.93,2.93,0,1,0-4.144,4.142,17.922,17.922,0,0,0,1.418,1.271L26.76,64.757a10.283,10.283,0,0,0,.014,14.507,10.447,10.447,0,0,0,14.518,0,2.93,2.93,0,0,0-4.144-4.143,4.557,4.557,0,0,1-6.23,0,4.417,4.417,0,0,1,0-6.237l.027-.027,8.549-8.78c.1-.1,3.065.754,3.437.8A17.608,17.608,0,0,0,61.154,35.968H71.882c.007,7.493.019,17.406.037,30.525H64.746v-.74a2.93,2.93,0,0,0-5.859,0v7.339a2.93,2.93,0,1,0,5.859,0v-.739h7.181c0,1.385.021,14.43.029,19.387h-8.2A10.26,10.26,0,0,0,46.856,88,2.93,2.93,0,0,0,51,92.139c3.89-3.891,10.267,2.2,6.229,6.237a2.93,2.93,0,0,0,0,4.143,2.978,2.978,0,0,0,4.143,0A10.2,10.2,0,0,0,64.1,97.6h7.862c.011,6.748.023,13.136.034,18.808H49.015a2.929,2.929,0,0,0-2.072.859,10.284,10.284,0,0,0,0,14.521,10.509,10.509,0,0,0,14.518,0,2.93,2.93,0,0,0-4.143-4.143,4.554,4.554,0,0,1-6.23,0,4.42,4.42,0,0,1-.669-5.378H72.012c.011,5,.041,15.307.045,16.237A32.525,32.525,0,0,1,53.4,144.141Zm80.467-47.95a2.93,2.93,0,0,0-1.247,3.946,19.089,19.089,0,0,1-8.367,25.82,2.929,2.929,0,0,0-1.545,2c-1.975,9.225-13.2,16.182-26.1,16.182a32.184,32.184,0,0,1-18.676-5.634l-.024-16.24H88.493a10.265,10.265,0,1,0,.343-5.859H77.9L77.868,97.6h27.209a10.269,10.269,0,1,0,0-5.859H77.859l-.028-19.387h6.414a10.269,10.269,0,1,0,0-5.859H77.823l-.045-30.525h8.557a10.274,10.274,0,1,0-.072-5.859H77.77l-.024-16.225a19.324,19.324,0,0,1,35,11.064,3.138,3.138,0,0,0,2.031,2.837c12.507,6.335,19.975,13.615,19.975,19.474,0,7.3-4.779,15.882-12.777,16.141a2.93,2.93,0,0,0,.091,5.859h.009a.764.764,0,0,0,.082,0c4.9-.552,9.657-2.4,12.9-6.25a19.085,19.085,0,0,1-1.194,33.186ZM94.078,119.916a4.406,4.406,0,1,1,4.406,4.409A4.413,4.413,0,0,1,94.078,119.916Zm16.431-25.246a4.406,4.406,0,1,1,4.406,4.409A4.413,4.413,0,0,1,110.509,94.669ZM89.677,69.423a4.406,4.406,0,1,1,4.406,4.409A4.413,4.413,0,0,1,89.677,69.423Zm2.054-36.511a4.406,4.406,0,1,1,4.406,4.409A4.413,4.413,0,0,1,91.731,32.912Z" fill="#c8a518"/>
        </g>
      </g>
      <g id="Group_1750" data-name="Group 1750" transform="translate(7.416 87.591)">
        <g id="Group_1749" data-name="Group 1749">
          <path id="Path_2441" data-name="Path 2441" d="M132.44,331.53a9.984,9.984,0,0,0-10.81,9.11,10.007,10.007,0,0,0,9.11,10.82c.29.02.57.03.86.03a10.008,10.008,0,0,0,9.96-9.15c0-.01,0-.01-.01-.01A10,10,0,0,0,132.44,331.53Z" transform="translate(-121.592 -331.493)" fill="#c8a518"/>
        </g>
      </g>
      <g id="Group_1752" data-name="Group 1752" transform="translate(122.588 53.474)">
        <g id="Group_1751" data-name="Group 1751">
          <path id="Path_2442" data-name="Path 2442" d="M387.28,205.19l-.01-.01a10,10,0,0,0-13.9,14.38.01.01,0,0,0,.01.01,10,10,0,0,0,13.9-14.38Z" transform="translate(-370.328 -202.38)" fill="#c8a518"/>
        </g>
      </g>
    </g>
  </g>
</svg>
