<svg xmlns="http://www.w3.org/2000/svg" width="150" height="150" viewBox="0 0 150 150">
  <g id="technology" transform="translate(0 0)">
    <path id="Path_2414" data-name="Path 2414" d="M109.1,251.982a2.991,2.991,0,0,0,0-5.979c-.036,0-.071,0-.108,0a2.992,2.992,0,1,0,0,5.985c.036,0,.071,0,.105,0Zm0,0" transform="translate(-74.973 -173.993)" fill="#fc0"/>
    <path id="Path_2415" data-name="Path 2415" d="M154.864,106c-20.581,0-37.647,13.278-43.065,31.04a2.871,2.871,0,0,0,2.027,3.583,3.011,3.011,0,0,0,3.715-1.954c4.831-15.837,20.179-26.9,37.323-26.9,21.451,0,38.9,16.828,38.9,37.51,0,15.573-9.895,28.959-23.939,34.623V162.018l11.093-10.7a2.834,2.834,0,0,0,.877-2.04V143.51a2.994,2.994,0,0,0-5.985,0v4.576l-11.093,10.7a2.834,2.834,0,0,0-.877,2.04v24.959a40.121,40.121,0,0,1-5.985.9V146.03a11.647,11.647,0,0,0,8.977-11.176,11.977,11.977,0,0,0-23.939,0,11.647,11.647,0,0,0,8.977,11.176v40.649a40.69,40.69,0,0,1-5.985-.885V160.822a2.834,2.834,0,0,0-.877-2.04l-11.093-10.7V143.51a2.994,2.994,0,0,0-5.985,0v5.771a2.834,2.834,0,0,0,.877,2.04l11.093,10.7v21.928a37.871,37.871,0,0,1-22.363-24.059,3.011,3.011,0,0,0-3.719-1.945,2.87,2.87,0,0,0-2.018,3.586c5.9,19.164,23.924,31.034,43.062,31.034,24.7,0,44.886-19.375,44.886-43.281,0-23.865-20.135-43.281-44.886-43.281Zm-5.985,28.854a5.989,5.989,0,1,1,5.985,5.771A5.888,5.888,0,0,1,148.879,134.854Zm0,0" transform="translate(-79.906 -74.281)" fill="#fc0"/>
    <path id="Path_2416" data-name="Path 2416" d="M147.7,63.349l-12.619-2.771a60.553,60.553,0,0,0-7.371-17.873l7.435-11.363a2.929,2.929,0,0,0-.38-3.676l-12.43-12.431a2.929,2.929,0,0,0-3.676-.379l-11.363,7.434a60.527,60.527,0,0,0-17.872-7.37L86.651,2.3A2.931,2.931,0,0,0,83.789,0H66.211a2.931,2.931,0,0,0-2.862,2.3L60.578,14.921a60.525,60.525,0,0,0-17.872,7.37L31.343,14.857a2.931,2.931,0,0,0-3.676.379L15.237,27.667a2.929,2.929,0,0,0-.38,3.676l7.435,11.363a60.6,60.6,0,0,0-7.373,17.873L2.3,63.349A2.93,2.93,0,0,0,0,66.21V83.789a2.931,2.931,0,0,0,2.3,2.862l12.747,2.8a60.475,60.475,0,0,0,7.366,17.638l-7.558,11.567a2.931,2.931,0,0,0,.38,3.675l12.43,12.431a2.931,2.931,0,0,0,3.674.382l11.723-7.654a60.575,60.575,0,0,0,17.4,7.138L63.35,147.7a2.93,2.93,0,0,0,2.861,2.3H83.789a2.928,2.928,0,0,0,2.861-2.3l2.882-13.071a60.548,60.548,0,0,0,17.4-7.138l11.723,7.654a2.931,2.931,0,0,0,3.674-.382l12.43-12.431a2.929,2.929,0,0,0,.381-3.675l-7.559-11.567a60.551,60.551,0,0,0,7.368-17.638l12.746-2.8a2.931,2.931,0,0,0,2.3-2.862V66.21a2.932,2.932,0,0,0-2.3-2.861ZM144.14,81.433l-12.262,2.7a2.931,2.931,0,0,0-2.238,2.257,54.785,54.785,0,0,1-7.984,19.1,2.93,2.93,0,0,0-.011,3.224l7.293,11.163-9.066,9.066-11.3-7.377a2.928,2.928,0,0,0-3.194-.006A54.82,54.82,0,0,1,86.485,129.3a2.928,2.928,0,0,0-2.273,2.238l-2.777,12.6H68.565l-2.777-12.6a2.928,2.928,0,0,0-2.273-2.238,54.815,54.815,0,0,1-18.889-7.748,2.928,2.928,0,0,0-3.2.006l-11.3,7.377-9.067-9.066,7.294-11.163a2.93,2.93,0,0,0-.013-3.224,54.75,54.75,0,0,1-7.984-19.1,2.932,2.932,0,0,0-2.237-2.257L5.86,81.433V68.567L18.007,65.9a2.93,2.93,0,0,0,2.243-2.279,54.808,54.808,0,0,1,7.975-19.327,2.934,2.934,0,0,0,0-3.216L21.064,30.127l9.064-9.064L41.079,28.23a2.93,2.93,0,0,0,3.215,0A54.8,54.8,0,0,1,63.62,20.253,2.929,2.929,0,0,0,65.9,18.01L68.567,5.859H81.432L84.1,18.01a2.929,2.929,0,0,0,2.28,2.243,54.8,54.8,0,0,1,19.327,7.972,2.93,2.93,0,0,0,3.215,0l10.951-7.166,9.064,9.064-7.166,10.951a2.93,2.93,0,0,0,0,3.215,54.784,54.784,0,0,1,7.973,19.327,2.926,2.926,0,0,0,2.243,2.28l12.15,2.668Zm0,0" fill="#fc0"/>
  </g>
</svg>
