<svg xmlns="http://www.w3.org/2000/svg" width="138.001" height="138.206" viewBox="0 0 138.001 138.206">
  <g id="Processor_security" data-name="Processor security" transform="translate(-2 -2)">
    <path id="Path_1" data-name="Path 1" d="M27,11h4.6v4.6H27Z" transform="translate(32.501 11.7)" fill="#c8a518"/>
    <path id="Path_2" data-name="Path 2" d="M53,35h4.6v4.6H53Z" transform="translate(66.301 42.901)" fill="#c8a518"/>
    <path id="Path_3" data-name="Path 3" d="M35,51h4.6v4.6H35Z" transform="translate(42.901 63.701)" fill="#c8a518"/>
    <path id="Path_4" data-name="Path 4" d="M27,54h4.6v4.6H27Z" transform="translate(32.501 67.601)" fill="#c8a518"/>
    <path id="Path_5" data-name="Path 5" d="M11,31h4.6v4.6H11Z" transform="translate(11.7 37.701)" fill="#c8a518"/>
    <path id="Path_6" data-name="Path 6" d="M35,11h4.6v4.6H35Z" transform="translate(42.901 11.7)" fill="#c8a518"/>
    <path id="Path_7" data-name="Path 7" d="M51,27h4.6v4.6H51Z" transform="translate(63.701 32.501)" fill="#c8a518"/>
    <path id="Path_8" data-name="Path 8" d="M46,17h4.6v4.6H46Z" transform="translate(57.201 19.5)" fill="#c8a518"/>
    <path id="Path_9" data-name="Path 9" d="M16,17h4.6v4.6H16Z" transform="translate(18.2 19.5)" fill="#c8a518"/>
    <path id="Path_10" data-name="Path 10" d="M46,45h4.6v4.6H46Z" transform="translate(57.201 55.901)" fill="#c8a518"/>
    <path id="Path_11" data-name="Path 11" d="M16,45h4.6v4.6H16Z" transform="translate(18.2 55.901)" fill="#c8a518"/>
    <g id="Group_5" data-name="Group 5" transform="translate(2 2)">
      <path id="Path_12" data-name="Path 12" d="M35.649,31A6.886,6.886,0,0,0,33.62,44.394V49.4h4.6V44.378A6.884,6.884,0,0,0,35.649,31Zm2.571,6.81a2.3,2.3,0,1,1-2.392-2.21h.092a2.3,2.3,0,0,1,2.3,2.208Z" transform="translate(33.08 35.697)" fill="#c8a518"/>
      <path id="Path_13" data-name="Path 13" d="M52.6,36.223V33.5a11.5,11.5,0,1,0-23,0v2.723A6.9,6.9,0,0,0,25,42.7V61.1A6.9,6.9,0,0,0,31.9,68H50.3a6.9,6.9,0,0,0,6.9-6.9V42.7a6.9,6.9,0,0,0-4.6-6.477ZM34.2,33.5a6.9,6.9,0,0,1,13.8,0v2.3H34.2ZM52.6,61.1a2.3,2.3,0,0,1-2.3,2.3H31.9a2.3,2.3,0,0,1-2.3-2.3V42.7a2.3,2.3,0,0,1,2.3-2.3H50.3a2.3,2.3,0,0,1,2.3,2.3Z" transform="translate(27.901 24)" fill="#c8a518"/>
      <path id="Path_14" data-name="Path 14" d="M133.1,91.7a6.787,6.787,0,0,0-2.956.69l-5.29-5.29H103.2V82.5h11.5V77.9H103.2V73.3h12.043l13.08-6.541A6.886,6.886,0,1,0,126.2,61.8a6.673,6.673,0,0,0,.085.835L114.158,68.7H103.2V64.1h6.9V59.5h-6.9V54.9h10.152l7.59-7.59A6.787,6.787,0,0,0,123.9,48a6.9,6.9,0,1,0-6.9-6.9,6.787,6.787,0,0,0,.69,2.956L111.449,50.3H103.2A11.514,11.514,0,0,0,91.7,38.8V32.852L104.845,19.71a6.787,6.787,0,0,0,2.956.69,6.9,6.9,0,1,0-6.9-6.9,6.787,6.787,0,0,0,.69,2.956L87.1,30.946V38.8H82.5V31.9H77.9v6.9H73.3V22.277a6.9,6.9,0,1,0-4.6,0V38.8H64.1V31.9H59.5v6.9H54.9V21.748l-9.89-9.89A6.787,6.787,0,0,0,45.7,8.9a6.9,6.9,0,1,0-6.9,6.9,6.787,6.787,0,0,0,2.956-.69L50.3,23.652V38.8A11.514,11.514,0,0,0,38.8,50.3H30.552L24.31,44.056A6.787,6.787,0,0,0,25,41.1,6.9,6.9,0,1,0,18.1,48a6.787,6.787,0,0,0,2.956-.69l7.59,7.59H38.8v4.6H24.168L12.12,69.538A6.792,6.792,0,0,0,8.9,68.7a6.9,6.9,0,1,0,6.355,4.214L25.833,64.1H38.8v4.6H31.9v4.6h6.9v4.6H18.1v4.6H38.8v4.6H26.07L16.8,101a6.827,6.827,0,0,0-1-.1,6.964,6.964,0,1,0,5.083,2.272L28.531,91.7H38.8a11.514,11.514,0,0,0,11.5,11.5v15.148l-8.545,8.542a6.787,6.787,0,0,0-2.956-.69,6.9,6.9,0,1,0,6.9,6.9,6.787,6.787,0,0,0-.69-2.956l9.89-9.89V103.2h4.6V117h4.6V103.2h4.6v19.674l13.97,8.74a7,7,0,1,0,2.459-3.889l-11.829-7.4V103.2h4.6v6.9h4.6v-6.9h4.6v18.4h16.523a6.9,6.9,0,1,0,0-4.6H91.7V103.2a11.514,11.514,0,0,0,11.5-11.5h19.748l3.942,3.945a6.788,6.788,0,0,0-.69,2.956,6.9,6.9,0,1,0,6.9-6.9Zm0-32.2a2.3,2.3,0,1,1-2.3,2.3A2.3,2.3,0,0,1,133.1,59.5Zm-9.2-20.7a2.3,2.3,0,1,1-2.3,2.3A2.3,2.3,0,0,1,123.9,38.8ZM107.8,11.2a2.3,2.3,0,1,1-2.3,2.3A2.3,2.3,0,0,1,107.8,11.2ZM71,13.5a2.3,2.3,0,1,1-2.3,2.3A2.3,2.3,0,0,1,71,13.5ZM36.5,8.9a2.3,2.3,0,1,1,2.3,2.3A2.3,2.3,0,0,1,36.5,8.9ZM15.8,41.1a2.3,2.3,0,1,1,2.3,2.3A2.3,2.3,0,0,1,15.8,41.1ZM8.9,77.9a2.3,2.3,0,1,1,2.3-2.3A2.3,2.3,0,0,1,8.9,77.9Zm6.9,32.2a2.3,2.3,0,1,1,2.3-2.3A2.3,2.3,0,0,1,15.8,110.1Zm23,25.3a2.3,2.3,0,1,1,2.3-2.3A2.3,2.3,0,0,1,38.8,135.4Zm50.6-4.6a2.3,2.3,0,1,1-2.3,2.3A2.3,2.3,0,0,1,89.4,130.8ZM110.1,117a2.3,2.3,0,1,1-2.3,2.3A2.3,2.3,0,0,1,110.1,117ZM98.6,91.7a6.9,6.9,0,0,1-6.9,6.9H50.3a6.9,6.9,0,0,1-6.9-6.9V50.3a6.9,6.9,0,0,1,6.9-6.9H91.7a6.9,6.9,0,0,1,6.9,6.9Zm34.5,9.2a2.3,2.3,0,1,1,2.3-2.3A2.3,2.3,0,0,1,133.1,100.9Z" transform="translate(-2 -2)" fill="#c8a518"/>
    </g>
  </g>
</svg>
