<svg xmlns="http://www.w3.org/2000/svg" width="150" height="150" viewBox="0 0 150 150">
  <g id="cpu" transform="translate(-0.001)">
    <g id="Group_1702" data-name="Group 1702" transform="translate(0.001)">
      <g id="Group_1701" data-name="Group 1701" transform="translate(0)">
        <path id="Path_2417" data-name="Path 2417" d="M126.218,77.2H138.89a5.774,5.774,0,1,0,0-4.395H126.218V53.585H138.89a5.774,5.774,0,1,0,0-4.395H126.218V25.98a2.2,2.2,0,0,0-2.2-2.2h-9.437a2.2,2.2,0,0,0,0,4.395h7.24v93.645H28.179V28.178h77.748a2.2,2.2,0,1,0,0-4.395h-5.112V11.111a5.775,5.775,0,1,0-4.394,0v12.67H77.2V11.111a5.774,5.774,0,1,0-4.395,0v12.67H53.588V11.111a5.775,5.775,0,1,0-4.395,0v12.67H25.982a2.2,2.2,0,0,0-2.2,2.2V49.188H11.112a5.774,5.774,0,1,0,0,4.394H23.784V72.8H11.112a5.775,5.775,0,1,0,0,4.395H23.784V96.415H11.112a5.775,5.775,0,1,0,0,4.395H23.784v23.21a2.2,2.2,0,0,0,2.2,2.2H49.187v12.672a5.775,5.775,0,1,0,4.394,0V126.217H72.8v12.672a5.774,5.774,0,1,0,4.394,0v-12.67H96.413v12.673a5.774,5.774,0,1,0,4.394,0v-12.67H124.02a2.2,2.2,0,0,0,2.2-2.2V100.812h12.672a5.775,5.775,0,1,0,0-4.395H126.217V77.2Zm18.009-3.579a1.38,1.38,0,1,1-1.38,1.38A1.381,1.381,0,0,1,144.227,73.62Zm0-23.614a1.38,1.38,0,1,1-1.38,1.38A1.381,1.381,0,0,1,144.227,50.007ZM98.615,4.395a1.379,1.379,0,0,1,.01,2.759h-.019a1.38,1.38,0,0,1,.008-2.759ZM75,4.395a1.379,1.379,0,0,1,.01,2.759h-.019A1.379,1.379,0,0,1,75,4.395Zm-23.614,0a1.379,1.379,0,0,1,.01,2.759h-.019a1.379,1.379,0,0,1,.008-2.759ZM5.775,52.766a1.38,1.38,0,1,1,1.38-1.38A1.381,1.381,0,0,1,5.775,52.766Zm0,23.614A1.38,1.38,0,1,1,7.155,75,1.381,1.381,0,0,1,5.775,76.38Zm0,23.614a1.38,1.38,0,1,1,1.38-1.38A1.381,1.381,0,0,1,5.775,99.993Zm45.612,45.612a1.379,1.379,0,0,1-.008-2.759h.015a1.379,1.379,0,0,1-.007,2.759Zm23.614,0a1.379,1.379,0,0,1-.009-2.759h.015A1.379,1.379,0,0,1,75,145.605Zm23.614,0a1.379,1.379,0,0,1-.008-2.759h.015a1.379,1.379,0,0,1-.007,2.759Zm45.612-48.371a1.38,1.38,0,1,1-1.38,1.38A1.381,1.381,0,0,1,144.227,97.234Z" transform="translate(-0.001)" fill="#c8a518"/>
      </g>
    </g>
    <g id="Group_1704" data-name="Group 1704" transform="translate(23.941 23.94)">
      <g id="Group_1703" data-name="Group 1703">
        <path id="Path_2418" data-name="Path 2418" d="M205.505,105.938H108.49a2.552,2.552,0,0,0-2.552,2.552v70.88a2.552,2.552,0,0,0,5.1,0V111.042h91.912v91.912H111.042v-13.53a2.552,2.552,0,1,0-5.1,0v16.082a2.552,2.552,0,0,0,2.552,2.552h97.016a2.552,2.552,0,0,0,2.552-2.552V108.49A2.552,2.552,0,0,0,205.505,105.938Z" transform="translate(-105.938 -105.938)" fill="#c8a518"/>
      </g>
    </g>
    <g id="Group_1706" data-name="Group 1706" transform="translate(54.988 54.987)">
      <g id="Group_1705" data-name="Group 1705">
        <path id="Path_2419" data-name="Path 2419" d="M234.658,197.184H199.736a2.552,2.552,0,0,0-2.552,2.552v34.922a2.552,2.552,0,0,0,2.552,2.552h13.455a2.552,2.552,0,0,0,0-5.1h-10.9V202.288h29.818v29.818h-8.861a2.552,2.552,0,0,0,0,5.1h11.413a2.552,2.552,0,0,0,2.552-2.552V199.736A2.552,2.552,0,0,0,234.658,197.184Z" transform="translate(-197.184 -197.184)" fill="#c8a518"/>
      </g>
    </g>
    <g id="Group_1708" data-name="Group 1708" transform="translate(41.697 41.696)">
      <g id="Group_1707" data-name="Group 1707">
        <path id="Path_2420" data-name="Path 2420" d="M150.277,143.617h-4.108a2.552,2.552,0,0,0-2.552,2.552v4.108a2.552,2.552,0,0,0,2.552,2.552h4.108a2.552,2.552,0,0,0,2.552-2.552v-4.108A2.552,2.552,0,0,0,150.277,143.617Z" transform="translate(-143.617 -143.617)" fill="#c8a518"/>
      </g>
    </g>
    <g id="Group_1710" data-name="Group 1710" transform="translate(53.177 41.696)">
      <g id="Group_1709" data-name="Group 1709">
        <path id="Path_2421" data-name="Path 2421" d="M189.817,143.617h-4.108a2.552,2.552,0,0,0-2.552,2.552v4.108a2.552,2.552,0,0,0,2.552,2.552h4.108a2.552,2.552,0,0,0,2.552-2.552v-4.108A2.552,2.552,0,0,0,189.817,143.617Z" transform="translate(-183.157 -143.617)" fill="#c8a518"/>
      </g>
    </g>
    <g id="Group_1712" data-name="Group 1712" transform="translate(64.656 41.696)">
      <g id="Group_1711" data-name="Group 1711">
        <path id="Path_2422" data-name="Path 2422" d="M229.355,143.617h-4.108a2.552,2.552,0,0,0-2.552,2.552v4.108a2.552,2.552,0,0,0,2.552,2.552h4.108a2.552,2.552,0,0,0,2.552-2.552v-4.108A2.552,2.552,0,0,0,229.355,143.617Z" transform="translate(-222.695 -143.617)" fill="#c8a518"/>
      </g>
    </g>
    <g id="Group_1714" data-name="Group 1714" transform="translate(76.135 41.696)">
      <g id="Group_1713" data-name="Group 1713">
        <path id="Path_2423" data-name="Path 2423" d="M268.894,143.617h-4.108a2.552,2.552,0,0,0-2.552,2.552v4.108a2.552,2.552,0,0,0,2.552,2.552h4.108a2.552,2.552,0,0,0,2.552-2.552v-4.108A2.552,2.552,0,0,0,268.894,143.617Z" transform="translate(-262.234 -143.617)" fill="#c8a518"/>
      </g>
    </g>
    <g id="Group_1716" data-name="Group 1716" transform="translate(87.614 41.696)">
      <g id="Group_1715" data-name="Group 1715">
        <path id="Path_2424" data-name="Path 2424" d="M308.433,143.617h-4.108a2.552,2.552,0,0,0-2.552,2.552v4.108a2.552,2.552,0,0,0,2.552,2.552h4.108a2.552,2.552,0,0,0,2.552-2.552v-4.108A2.552,2.552,0,0,0,308.433,143.617Z" transform="translate(-301.773 -143.617)" fill="#c8a518"/>
      </g>
    </g>
    <g id="Group_1718" data-name="Group 1718" transform="translate(99.093 41.696)">
      <g id="Group_1717" data-name="Group 1717">
        <path id="Path_2425" data-name="Path 2425" d="M347.971,143.617h-4.108a2.552,2.552,0,0,0-2.552,2.552v4.108a2.552,2.552,0,0,0,2.552,2.552h4.108a2.552,2.552,0,0,0,2.552-2.552v-4.108A2.552,2.552,0,0,0,347.971,143.617Z" transform="translate(-341.311 -143.617)" fill="#c8a518"/>
      </g>
    </g>
    <g id="Group_1720" data-name="Group 1720" transform="translate(41.697 99.092)">
      <g id="Group_1719" data-name="Group 1719">
        <path id="Path_2426" data-name="Path 2426" d="M150.277,341.311h-4.108a2.552,2.552,0,0,0-2.552,2.552v4.108a2.552,2.552,0,0,0,2.552,2.552h4.108a2.552,2.552,0,0,0,2.552-2.552v-4.108A2.552,2.552,0,0,0,150.277,341.311Z" transform="translate(-143.617 -341.311)" fill="#c8a518"/>
      </g>
    </g>
    <g id="Group_1722" data-name="Group 1722" transform="translate(53.176 99.092)">
      <g id="Group_1721" data-name="Group 1721">
        <path id="Path_2427" data-name="Path 2427" d="M189.816,341.311h-4.108a2.552,2.552,0,0,0-2.552,2.552v4.108a2.552,2.552,0,0,0,2.552,2.552h4.108a2.552,2.552,0,0,0,2.552-2.552v-4.108A2.552,2.552,0,0,0,189.816,341.311Z" transform="translate(-183.156 -341.311)" fill="#c8a518"/>
      </g>
    </g>
    <g id="Group_1724" data-name="Group 1724" transform="translate(64.656 99.092)">
      <g id="Group_1723" data-name="Group 1723">
        <path id="Path_2428" data-name="Path 2428" d="M229.355,341.311h-4.108a2.552,2.552,0,0,0-2.552,2.552v4.108a2.552,2.552,0,0,0,2.552,2.552h4.108a2.552,2.552,0,0,0,2.552-2.552v-4.108A2.552,2.552,0,0,0,229.355,341.311Z" transform="translate(-222.695 -341.311)" fill="#c8a518"/>
      </g>
    </g>
    <g id="Group_1726" data-name="Group 1726" transform="translate(76.135 99.092)">
      <g id="Group_1725" data-name="Group 1725">
        <path id="Path_2429" data-name="Path 2429" d="M268.894,341.311h-4.108a2.552,2.552,0,0,0-2.552,2.552v4.108a2.552,2.552,0,0,0,2.552,2.552h4.108a2.552,2.552,0,0,0,2.552-2.552v-4.108A2.552,2.552,0,0,0,268.894,341.311Z" transform="translate(-262.234 -341.311)" fill="#c8a518"/>
      </g>
    </g>
    <g id="Group_1728" data-name="Group 1728" transform="translate(87.614 99.092)">
      <g id="Group_1727" data-name="Group 1727">
        <path id="Path_2430" data-name="Path 2430" d="M308.433,341.311h-4.108a2.552,2.552,0,0,0-2.552,2.552v4.108a2.552,2.552,0,0,0,2.552,2.552h4.108a2.552,2.552,0,0,0,2.552-2.552v-4.108A2.552,2.552,0,0,0,308.433,341.311Z" transform="translate(-301.773 -341.311)" fill="#c8a518"/>
      </g>
    </g>
    <g id="Group_1730" data-name="Group 1730" transform="translate(99.093 99.092)">
      <g id="Group_1729" data-name="Group 1729">
        <path id="Path_2431" data-name="Path 2431" d="M347.971,341.311h-4.108a2.552,2.552,0,0,0-2.552,2.552v4.108a2.552,2.552,0,0,0,2.552,2.552h4.108a2.552,2.552,0,0,0,2.552-2.552v-4.108A2.552,2.552,0,0,0,347.971,341.311Z" transform="translate(-341.311 -341.311)" fill="#c8a518"/>
      </g>
    </g>
    <g id="Group_1732" data-name="Group 1732" transform="translate(41.697 53.175)">
      <g id="Group_1731" data-name="Group 1731">
        <path id="Path_2432" data-name="Path 2432" d="M150.277,183.156h-4.108a2.552,2.552,0,0,0-2.552,2.552v4.108a2.552,2.552,0,0,0,2.552,2.552h4.108a2.552,2.552,0,0,0,2.552-2.552v-4.108A2.552,2.552,0,0,0,150.277,183.156Z" transform="translate(-143.617 -183.156)" fill="#c8a518"/>
      </g>
    </g>
    <g id="Group_1734" data-name="Group 1734" transform="translate(41.697 64.655)">
      <g id="Group_1733" data-name="Group 1733">
        <path id="Path_2433" data-name="Path 2433" d="M150.277,222.695h-4.108a2.552,2.552,0,0,0-2.552,2.552v4.108a2.552,2.552,0,0,0,2.552,2.552h4.108a2.552,2.552,0,0,0,2.552-2.552v-4.108A2.552,2.552,0,0,0,150.277,222.695Z" transform="translate(-143.617 -222.695)" fill="#c8a518"/>
      </g>
    </g>
    <g id="Group_1736" data-name="Group 1736" transform="translate(41.697 76.134)">
      <g id="Group_1735" data-name="Group 1735">
        <path id="Path_2434" data-name="Path 2434" d="M150.277,262.234h-4.108a2.552,2.552,0,0,0-2.552,2.552v4.108a2.552,2.552,0,0,0,2.552,2.552h4.108a2.552,2.552,0,0,0,2.552-2.552v-4.108A2.552,2.552,0,0,0,150.277,262.234Z" transform="translate(-143.617 -262.234)" fill="#c8a518"/>
      </g>
    </g>
    <g id="Group_1738" data-name="Group 1738" transform="translate(41.697 87.613)">
      <g id="Group_1737" data-name="Group 1737">
        <path id="Path_2435" data-name="Path 2435" d="M150.277,301.772h-4.108a2.552,2.552,0,0,0-2.552,2.552v4.108a2.552,2.552,0,0,0,2.552,2.552h4.108a2.552,2.552,0,0,0,2.552-2.552v-4.108A2.552,2.552,0,0,0,150.277,301.772Z" transform="translate(-143.617 -301.772)" fill="#c8a518"/>
      </g>
    </g>
    <g id="Group_1740" data-name="Group 1740" transform="translate(99.093 53.175)">
      <g id="Group_1739" data-name="Group 1739">
        <path id="Path_2436" data-name="Path 2436" d="M347.971,183.156h-4.108a2.552,2.552,0,0,0-2.552,2.552v4.108a2.552,2.552,0,0,0,2.552,2.552h4.108a2.552,2.552,0,0,0,2.552-2.552v-4.108A2.552,2.552,0,0,0,347.971,183.156Z" transform="translate(-341.311 -183.156)" fill="#c8a518"/>
      </g>
    </g>
    <g id="Group_1742" data-name="Group 1742" transform="translate(99.093 64.655)">
      <g id="Group_1741" data-name="Group 1741">
        <path id="Path_2437" data-name="Path 2437" d="M347.971,222.695h-4.108a2.552,2.552,0,0,0-2.552,2.552v4.108a2.552,2.552,0,0,0,2.552,2.552h4.108a2.552,2.552,0,0,0,2.552-2.552v-4.108A2.552,2.552,0,0,0,347.971,222.695Z" transform="translate(-341.311 -222.695)" fill="#c8a518"/>
      </g>
    </g>
    <g id="Group_1744" data-name="Group 1744" transform="translate(99.093 76.134)">
      <g id="Group_1743" data-name="Group 1743">
        <path id="Path_2438" data-name="Path 2438" d="M347.971,262.234h-4.108a2.552,2.552,0,0,0-2.552,2.552v4.108a2.552,2.552,0,0,0,2.552,2.552h4.108a2.552,2.552,0,0,0,2.552-2.552v-4.108A2.552,2.552,0,0,0,347.971,262.234Z" transform="translate(-341.311 -262.234)" fill="#c8a518"/>
      </g>
    </g>
    <g id="Group_1746" data-name="Group 1746" transform="translate(99.093 87.613)">
      <g id="Group_1745" data-name="Group 1745">
        <path id="Path_2439" data-name="Path 2439" d="M347.971,301.772h-4.108a2.552,2.552,0,0,0-2.552,2.552v4.108a2.552,2.552,0,0,0,2.552,2.552h4.108a2.552,2.552,0,0,0,2.552-2.552v-4.108A2.552,2.552,0,0,0,347.971,301.772Z" transform="translate(-341.311 -301.772)" fill="#c8a518"/>
      </g>
    </g>
  </g>
</svg>
