<svg xmlns="http://www.w3.org/2000/svg" width="147.76" height="78.111" viewBox="0 0 147.76 78.111">
  <g id="Group_24" data-name="Group 24" transform="translate(-343.53 -236.589)">
    <path id="Path_11" data-name="Path 11" d="M377,294.62H356.63q-3.735,0-3.74-3.35V276.54q0-3.345,3.74-3.35h64.55v-9.35H356.62a12.975,12.975,0,0,0-9.27,3.62,11.984,11.984,0,0,0-3.82,9.08v14.73a11.984,11.984,0,0,0,3.82,9.08,12.967,12.967,0,0,0,9.27,3.62L377,303.9v.08h4.18v-9.45l-4.18.02Z" fill="#ee2a3e"/>
    <path id="Path_12" data-name="Path 12" d="M423.27,290.8a10.009,10.009,0,0,0,6.94-4.21,14.571,14.571,0,0,0,2.96-9.2c0-.23-.02-.46-.02-.68H423.8c.01.22.02.44.02.68,0,2.75-.24,4.29-2.03,4.13l-33.75-.08v22.52h9.35V290.87h13.33l11.61,13.09h12.78l-11.77-13.17h-.07Z" fill="#ee2a3e"/>
    <path id="Path_13" data-name="Path 13" d="M446.33,251.12h-7.9v-4.81h-5.74v5.74h4.81v7.46H425.67v12.18h12.18V259.95h8.48Z" fill="#ee2a3e"/>
    <g id="Group_3" data-name="Group 3">
      <g id="Group_2" data-name="Group 2">
        <path id="Path_14" data-name="Path 14" d="M442.78,311.8l-3.5-2.63,16.12-21.45h1.09a22.664,22.664,0,0,0,22.64-22.64,22.437,22.437,0,0,0-2.09-9.52l3.98-1.84a26.738,26.738,0,0,1,2.5,11.36,27.055,27.055,0,0,1-25.91,27Z" fill="#ee2c3e"/>
      </g>
    </g>
    <g id="Group_5" data-name="Group 5">
      <g id="Group_4" data-name="Group 4">
        <path id="Path_15" data-name="Path 15" d="M454.64,281.22H428.69v-4.38h25.95a12.718,12.718,0,0,0,12.7-12.7,12.519,12.519,0,0,0-.78-4.38l4.11-1.51a17.075,17.075,0,0,1-16.03,22.97Z" fill="#ee2c3e"/>
      </g>
    </g>
    <g id="Group_7" data-name="Group 7">
      <g id="Group_6" data-name="Group 6">
        <rect id="Rectangle_1" data-name="Rectangle 1" width="4.38" height="15.82" transform="matrix(1, -0.007, 0.007, 1, 467.515, 287.073)" fill="#ee2c3e"/>
      </g>
    </g>
    <g id="Group_9" data-name="Group 9">
      <g id="Group_8" data-name="Group 8">
        <path id="Path_16" data-name="Path 16" d="M462.23,300.92l15.83-.12.03,3.42-15.82.12Z" fill="#ee2c3e"/>
      </g>
    </g>
    <g id="Group_11" data-name="Group 11">
      <g id="Group_10" data-name="Group 10">
        <path id="Path_17" data-name="Path 17" d="M441.21,307.68" fill="#ee2c3e" stroke="#231f20" stroke-miterlimit="10" stroke-width="9"/>
      </g>
    </g>
    <g id="Group_13" data-name="Group 13">
      <g id="Group_12" data-name="Group 12">
        <path id="Path_18" data-name="Path 18" d="M449.92,286.74" fill="#ee2c3e" stroke="#231f20" stroke-miterlimit="10" stroke-width="9"/>
      </g>
    </g>
    <g id="Group_15" data-name="Group 15">
      <g id="Group_14" data-name="Group 14">
        <circle id="Ellipse_1" data-name="Ellipse 1" cx="3.37" cy="3.37" r="3.37" transform="translate(465.25 255.63)" fill="#ee2c3e"/>
      </g>
    </g>
    <g id="Group_17" data-name="Group 17">
      <g id="Group_16" data-name="Group 16">
        <circle id="Ellipse_2" data-name="Ellipse 2" cx="3.37" cy="3.37" r="3.37" transform="translate(474.79 249.8)" fill="#ee2c3e"/>
      </g>
    </g>
    <g id="Group_19" data-name="Group 19">
      <g id="Group_18" data-name="Group 18">
        <circle id="Ellipse_3" data-name="Ellipse 3" cx="3.37" cy="3.37" r="3.37" transform="translate(437.05 307.96)" fill="#ee2c3e"/>
      </g>
    </g>
    <g id="Group_21" data-name="Group 21">
      <g id="Group_20" data-name="Group 20">
        <path id="Path_19" data-name="Path 19" d="M439.12,306.59" fill="#ee2c3e" stroke="#231f20" stroke-miterlimit="10" stroke-width="7"/>
      </g>
    </g>
    <g id="Group_23" data-name="Group 23">
      <g id="Group_22" data-name="Group 22">
        <path id="Path_20" data-name="Path 20" d="M449.92,285.77" fill="#ee2c3e" stroke="#231f20" stroke-miterlimit="10" stroke-width="7"/>
      </g>
    </g>
    <path id="Path_21" data-name="Path 21" d="M488.84,251.19c-.08-.36-.17-.71-.26-1.05a18.206,18.206,0,0,0-16.32-13.49,17.389,17.389,0,0,0-17.65,10.39c-.11.24-.21.49-.32.74l-22.5,56.2h4.72l21.85-54.57.24-.57a13.128,13.128,0,0,1,13.3-7.82,13.841,13.841,0,0,1,12.43,10.27c.14.53.27,1.09.38,1.66l.18.92,6.37,4.1.03-.05Z" fill="#ee2c3e"/>
  </g>
</svg>
