<svg xmlns="http://www.w3.org/2000/svg" xmlns:xlink="http://www.w3.org/1999/xlink" width="120.026" height="120.021" viewBox="0 0 120.026 120.021">
  <defs>
    <linearGradient id="linear-gradient" x2="1" y2="0.325" gradientUnits="objectBoundingBox">
      <stop offset="0" stop-color="#e5670f"/>
      <stop offset="1" stop-color="#d48f12"/>
    </linearGradient>
  </defs>
  <g id="Group_1952" data-name="Group 1952" transform="translate(-625.816 -468.941)">
    <path id="Subtraction_41" data-name="Subtraction 41" d="M60.013,120.021A60.469,60.469,0,0,1,47.919,118.8a60.019,60.019,0,0,1-46.7-46.7,60.665,60.665,0,0,1,0-24.188,59.994,59.994,0,0,1,16.361-30.34,60.308,60.308,0,0,1,8.882-7.328A59.719,59.719,0,0,1,47.919,1.222a60.475,60.475,0,0,1,24.188,0,59.2,59.2,0,0,1,11.263,3.5,60.037,60.037,0,0,1,0,110.585,59.35,59.35,0,0,1-11.263,3.5A60.472,60.472,0,0,1,60.013,120.021Zm0-112.593A52.947,52.947,0,0,0,49.414,8.5a52.287,52.287,0,0,0-18.8,7.91,52.789,52.789,0,0,0-7.783,6.422A52.45,52.45,0,0,0,8.492,49.416a53.087,53.087,0,0,0,0,21.193,52.725,52.725,0,0,0,31.053,37.854,51.7,51.7,0,0,0,9.869,3.062,52.968,52.968,0,0,0,21.2,0,51.692,51.692,0,0,0,9.87-3.062,52.618,52.618,0,0,0,31.055-37.854,52.475,52.475,0,0,0-7.917-40A52.728,52.728,0,0,0,80.482,11.56,51.955,51.955,0,0,0,70.612,8.5,53,53,0,0,0,60.013,7.428Z" transform="translate(625.816 468.941)" fill="url(#linear-gradient)"/>
    <path id="Path_2452" data-name="Path 2452" d="M73.743,146.177H20.685a2.445,2.445,0,0,0-2.412,2.412v36.176a2.446,2.446,0,0,0,2.412,2.412H73.743a2.445,2.445,0,0,0,2.411-2.412V148.589a2.444,2.444,0,0,0-2.411-2.412ZM53.732,157.52a2.317,2.317,0,0,1-1.7.716H42.39a2.412,2.412,0,0,1,0-4.824h9.648a2.4,2.4,0,0,1,1.695,4.108Z" transform="translate(638.787 370.879)" fill="#c8a518"/>
    <path id="Path_2453" data-name="Path 2453" d="M61.99,18.987a2.317,2.317,0,0,0-1.7-.716H2.412a2.317,2.317,0,0,0-1.7.716A2.317,2.317,0,0,0,0,20.683v9.647a2.318,2.318,0,0,0,.716,1.7,2.317,2.317,0,0,0,1.7.716H60.293A2.444,2.444,0,0,0,62.7,30.329V20.683A2.318,2.318,0,0,0,61.99,18.987Z" transform="translate(654.648 481.902)" fill="#c8a518"/>
  </g>
</svg>
