<svg xmlns="http://www.w3.org/2000/svg" xmlns:xlink="http://www.w3.org/1999/xlink" width="92.375" height="70.015" viewBox="0 0 92.375 70.015">
  <defs>
    <filter id="Subtraction_76" x="2.885" y="21.638" width="48.377" height="48.377" filterUnits="userSpaceOnUse">
      <feOffset dy="3" input="SourceAlpha"/>
      <feGaussianBlur stdDeviation="6.5" result="blur"/>
      <feFlood flood-color="#fc0" flood-opacity="0.588"/>
      <feComposite operator="in" in2="blur"/>
      <feComposite in="SourceGraphic"/>
    </filter>
    <filter id="Subtraction_77" x="18.753" y="5.049" width="48.377" height="48.377" filterUnits="userSpaceOnUse">
      <feOffset dy="3" input="SourceAlpha"/>
      <feGaussianBlur stdDeviation="6.5" result="blur-2"/>
      <feFlood flood-color="#fc0" flood-opacity="0.588"/>
      <feComposite operator="in" in2="blur-2"/>
      <feComposite in="SourceGraphic"/>
    </filter>
    <filter id="Subtraction_78" x="37.507" y="5.77" width="54.868" height="54.868" filterUnits="userSpaceOnUse">
      <feOffset dy="3" input="SourceAlpha"/>
      <feGaussianBlur stdDeviation="6.5" result="blur-3"/>
      <feFlood flood-color="#fc0" flood-opacity="0.588"/>
      <feComposite operator="in" in2="blur-3"/>
      <feComposite in="SourceGraphic"/>
    </filter>
    <filter id="Subtraction_79" x="0" y="0" width="54.868" height="54.868" filterUnits="userSpaceOnUse">
      <feOffset dy="3" input="SourceAlpha"/>
      <feGaussianBlur stdDeviation="6.5" result="blur-4"/>
      <feFlood flood-color="#fc0" flood-opacity="0.588"/>
      <feComposite operator="in" in2="blur-4"/>
      <feComposite in="SourceGraphic"/>
    </filter>
  </defs>
  <g id="Group_1912" data-name="Group 1912" transform="translate(-1523.5 -497.664)">
    <path id="Subtraction_75" data-name="Subtraction 75" d="M20.555,41.113A20.55,20.55,0,0,1,6.021,6.022,20.556,20.556,0,1,1,28.557,39.5,20.424,20.424,0,0,1,20.555,41.113Zm0-31.324A10.767,10.767,0,1,0,31.324,20.557,10.78,10.78,0,0,0,20.555,9.789Z" transform="translate(1550.213 512)" fill="#c8a518"/>
    <g transform="matrix(1, 0, 0, 1, 1523.5, 497.66)" filter="url(#Subtraction_76)">
      <path id="Subtraction_76-2" data-name="Subtraction 76" d="M4.688,9.377a4.687,4.687,0,0,1-3.315-8,4.688,4.688,0,1,1,5.14,7.635A4.658,4.658,0,0,1,4.688,9.377Zm0-7.144A2.456,2.456,0,1,0,7.144,4.688,2.459,2.459,0,0,0,4.688,2.233Z" transform="translate(22.39 38.14)" fill="#c8a518" opacity="0.2"/>
    </g>
    <g transform="matrix(1, 0, 0, 1, 1523.5, 497.66)" filter="url(#Subtraction_77)">
      <path id="Subtraction_77-2" data-name="Subtraction 77" d="M4.688,9.377a4.687,4.687,0,0,1-3.315-8,4.688,4.688,0,1,1,5.14,7.635A4.658,4.658,0,0,1,4.688,9.377Zm0-7.144A2.456,2.456,0,1,0,7.144,4.688,2.459,2.459,0,0,0,4.688,2.233Z" transform="translate(38.25 21.55)" fill="#c8a518" opacity="0.4"/>
    </g>
    <g transform="matrix(1, 0, 0, 1, 1523.5, 497.66)" filter="url(#Subtraction_78)">
      <path id="Subtraction_78-2" data-name="Subtraction 78" d="M7.934,15.868A7.932,7.932,0,0,1,2.324,2.324a7.934,7.934,0,1,1,8.7,12.92A7.883,7.883,0,0,1,7.934,15.868Zm0-12.09A4.156,4.156,0,1,0,12.09,7.934,4.161,4.161,0,0,0,7.934,3.778Z" transform="translate(57.01 22.27)" fill="#c8a518" opacity="0.4"/>
    </g>
    <g transform="matrix(1, 0, 0, 1, 1523.5, 497.66)" filter="url(#Subtraction_79)">
      <path id="Subtraction_79-2" data-name="Subtraction 79" d="M7.934,15.868A7.932,7.932,0,0,1,2.324,2.324a7.934,7.934,0,1,1,8.7,12.92A7.883,7.883,0,0,1,7.934,15.868Zm0-12.09A4.156,4.156,0,1,0,12.09,7.934,4.161,4.161,0,0,0,7.934,3.778Z" transform="translate(19.5 16.5)" fill="#c8a518" opacity="0.5"/>
    </g>
    <rect id="Rectangle_197" data-name="Rectangle 197" width="31.609" height="8.753" transform="translate(1581.301 537.31) rotate(45)" fill="#c8a518"/>
  </g>
</svg>
