<svg xmlns="http://www.w3.org/2000/svg" xmlns:xlink="http://www.w3.org/1999/xlink" width="198.793" height="198.781" viewBox="0 0 198.793 198.781">
  <defs>
    <linearGradient id="linear-gradient" x2="1" y2="0.325" gradientUnits="objectBoundingBox">
      <stop offset="0" stop-color="#e5670f"/>
      <stop offset="1" stop-color="#d48f12"/>
    </linearGradient>
  </defs>
  <g id="Group_1954" data-name="Group 1954" transform="translate(-416.104 -917.609)">
    <path id="Subtraction_68" data-name="Subtraction 68" d="M23570.4,21897.781a100.16,100.16,0,0,1-20.031-2.016,99.4,99.4,0,0,1-77.348-77.344,100.448,100.448,0,0,1,0-40.062,99.375,99.375,0,0,1,27.1-50.25,99.951,99.951,0,0,1,14.711-12.137,98.867,98.867,0,0,1,35.539-14.949,100.163,100.163,0,0,1,40.063,0,98.09,98.09,0,0,1,18.654,5.789,99.379,99.379,0,0,1-38.686,190.969Zm0-186.48a87.761,87.761,0,0,0-17.555,1.77,86.6,86.6,0,0,0-31.135,13.1,87.333,87.333,0,0,0-12.891,10.637,86.867,86.867,0,0,0-23.75,44.035,87.922,87.922,0,0,0,0,35.1,87.044,87.044,0,0,0,67.775,67.766,87.771,87.771,0,0,0,35.109,0,85.757,85.757,0,0,0,16.348-5.07,87.145,87.145,0,0,0,51.434-62.7,86.919,86.919,0,0,0-13.111-66.246,87.334,87.334,0,0,0-38.322-31.555,86.083,86.083,0,0,0-16.348-5.074A87.834,87.834,0,0,0,23570.4,21711.3Z" transform="translate(-23054.898 -20781.391)" fill="url(#linear-gradient)"/>
    <g id="player" transform="translate(452.002 949.26)">
      <g id="Group_1818" data-name="Group 1818" transform="translate(-0.002 0.241)">
        <path id="Path_2519" data-name="Path 2519" d="M126.207,100.085c-5.657-4.54-14.536-7.827-22.369-10.731-1.48-.548-2.933-1.086-4.35-1.628-3.109-1.162-5.61-2.153-7.7-3.175a22.86,22.86,0,0,1-3.741-2.288c-5.6-4.445-5.94-12.488-5.752-16.288a31.618,31.618,0,0,0,3.874-8.192c.051-.169.078-.351.125-.523.167.036.34.1.5.116a4.14,4.14,0,0,0,.607.042,6.1,6.1,0,0,0,4.929-3.095A24.8,24.8,0,0,0,95.17,43.332a10.464,10.464,0,0,0-.495-4.274,5.637,5.637,0,0,0-.681-1.251c4.339-14.514,4.17-25.188-.584-31.651A14.406,14.406,0,0,0,82.505.241H44.442a14.405,14.405,0,0,0-10.905,5.91C28.783,12.621,28.613,23.3,32.953,37.8a5.627,5.627,0,0,0-.681,1.249,10.449,10.449,0,0,0-.495,4.267,24.834,24.834,0,0,0,2.851,11.03,6.077,6.077,0,0,0,4.9,3.069,4.221,4.221,0,0,0,.592-.042c.171-.021.355-.085.533-.125.044.176.074.358.125.529a31.632,31.632,0,0,0,3.88,8.189c.188,3.791-.152,11.83-5.741,16.279a22.81,22.81,0,0,1-3.735,2.288c-2.1,1.041-4.6,2.032-7.723,3.2-1.406.538-2.861,1.075-4.339,1.623C15.291,92.257,6.41,95.544.746,100.084a2.19,2.19,0,0,0-.736,1.482,2,2,0,0,0,.023.595v10.264a14.826,14.826,0,0,0,14.8,14.817H112.11a14.826,14.826,0,0,0,14.8-14.817v-10.1A2.116,2.116,0,0,0,126.207,100.085ZM90.947,43.1a20.1,20.1,0,0,1-2.184,8.953c-.508.79-1.14,1.149-1.408,1.12a1.988,1.988,0,0,1-.457-.114l.895-12.539c.131-.083.25-.188.381-.258a2.806,2.806,0,0,1,2.034-.307.874.874,0,0,1,.514.6A6.7,6.7,0,0,1,90.947,43.1ZM39.559,53.183a2.149,2.149,0,0,1-1.358-1.1A20.093,20.093,0,0,1,36,43.093a6.648,6.648,0,0,1,.228-2.54.867.867,0,0,1,.512-.593,2.8,2.8,0,0,1,2.028.3c.135.072.254.178.387.262l.892,12.529A1.757,1.757,0,0,1,39.559,53.183Zm4.8.724-.021-.311v-.112L42.327,25.652a6.036,6.036,0,0,1,6.344-6.361A9.088,9.088,0,0,1,54.9,21.053a13.131,13.131,0,0,0,8.575,2.472,2.117,2.117,0,0,0,0-4.233,9.088,9.088,0,0,1-6.228-1.761,13.131,13.131,0,0,0-8.575-2.472A10.229,10.229,0,0,0,38.1,25.792l.719,10.052a6.9,6.9,0,0,0-2.1-.159C32.187,20,34.258,12.364,36.892,8.725a10.127,10.127,0,0,1,7.549-4.25H82.505A10.1,10.1,0,0,1,90,8.658c2.669,3.632,4.775,11.269.211,27.028a6.857,6.857,0,0,0-2.1.161l.708-9.948a12.189,12.189,0,0,0-3.347-10.89c-6.915-6.646-21.732-4.265-22.36-4.159a2.117,2.117,0,0,0,.7,4.174c3.7-.61,14.272-1.255,18.738,3.042a8.184,8.184,0,0,1,2.072,7.427l-2,28.016v.08l-.023.32a12.333,12.333,0,0,1-.474,2.656,26.316,26.316,0,0,1-9.706,13.729,10.477,10.477,0,0,1-6.088,1.916h-5.71a10.478,10.478,0,0,1-6.086-1.916,26.321,26.321,0,0,1-9.706-13.727A12.369,12.369,0,0,1,44.355,53.907ZM41.53,85.571a21.114,21.114,0,0,0,7.19-14.685,29.29,29.29,0,0,0,3.335,2.845,14.741,14.741,0,0,0,8.562,2.711h5.71a14.754,14.754,0,0,0,8.567-2.711,29.061,29.061,0,0,0,3.335-2.845,21.121,21.121,0,0,0,7.207,14.692,23.455,23.455,0,0,0,2.859,1.882c-2.214,3.617-9.192,13.335-21.637,15.981a15.477,15.477,0,0,1-6.45-.021C47.812,100.724,40.84,91,38.666,87.459A23.991,23.991,0,0,0,41.53,85.571Zm-6.678,3.782a39,39,0,0,0,24.45,18.2,19.791,19.791,0,0,0,4.191.449,19.375,19.375,0,0,0,4.039-.423A38.913,38.913,0,0,0,92.094,89.342c1.186.519,2.464,1.037,3.868,1.577-3.51,5.6-12.866,17.837-29.087,20.985a17.931,17.931,0,0,1-6.8,0C43.852,108.756,34.5,96.516,30.986,90.919,32.388,90.377,33.657,89.859,34.852,89.353Zm77.259,33.655h-4.164a25.457,25.457,0,0,1,5.665-15.452,2.116,2.116,0,0,0-3-2.987c-.269.269-6.249,6.411-6.9,18.43H23.23c-.649-12.018-6.629-18.161-6.9-18.43a2.116,2.116,0,0,0-3,2.987A25.415,25.415,0,0,1,19,123.008H14.837A10.591,10.591,0,0,1,4.263,112.425v-9.707c5.183-3.789,13.2-6.756,20.311-9.39.812-.3,1.586-.593,2.377-.889,3.453,5.715,13.787,20.024,32.316,23.618a22.255,22.255,0,0,0,8.412,0c18.529-3.6,28.863-17.9,32.316-23.62.791.3,1.567.588,2.377.889,7.116,2.633,15.128,5.6,20.3,9.39l.011,9.709A10.591,10.591,0,0,1,112.111,123.008Z" transform="translate(0.002 -0.241)" fill="#c8a518"/>
      </g>
    </g>
  </g>
</svg>
