<svg xmlns="http://www.w3.org/2000/svg" xmlns:xlink="http://www.w3.org/1999/xlink" width="198.793" height="198.781" viewBox="0 0 198.793 198.781">
  <defs>
    <linearGradient id="linear-gradient" x2="1" y2="0.325" gradientUnits="objectBoundingBox">
      <stop offset="0" stop-color="#e5670f"/>
      <stop offset="1" stop-color="#d48f12"/>
    </linearGradient>
  </defs>
  <g id="Group_1955" data-name="Group 1955" transform="translate(-862.104 -917.609)">
    <path id="Subtraction_71" data-name="Subtraction 71" d="M23570.4,21897.781a100.16,100.16,0,0,1-20.031-2.016,99.4,99.4,0,0,1-77.348-77.344,100.448,100.448,0,0,1,0-40.062,99.375,99.375,0,0,1,27.1-50.25,99.951,99.951,0,0,1,14.711-12.137,98.867,98.867,0,0,1,35.539-14.949,100.163,100.163,0,0,1,40.063,0,98.09,98.09,0,0,1,18.654,5.789,99.379,99.379,0,0,1-38.686,190.969Zm0-186.48a87.761,87.761,0,0,0-17.555,1.77,86.6,86.6,0,0,0-31.135,13.1,87.333,87.333,0,0,0-12.891,10.637,86.867,86.867,0,0,0-23.75,44.035,87.922,87.922,0,0,0,0,35.1,87.044,87.044,0,0,0,67.775,67.766,87.771,87.771,0,0,0,35.109,0,85.757,85.757,0,0,0,16.348-5.07,87.145,87.145,0,0,0,51.434-62.7,86.919,86.919,0,0,0-13.111-66.246,87.334,87.334,0,0,0-38.322-31.555,86.083,86.083,0,0,0-16.348-5.074A87.834,87.834,0,0,0,23570.4,21711.3Z" transform="translate(-22608.898 -20781.391)" fill="url(#linear-gradient)"/>
    <g id="team" transform="translate(890.123 893.635)">
      <g id="Group_1820" data-name="Group 1820" transform="translate(107.205 111.844)">
        <g id="Group_1819" data-name="Group 1819" transform="translate(0 0)">
          <path id="Path_2520" data-name="Path 2520" d="M408.847,230.854c-4.755-2.377-13.672-2.405-14.049-2.405a2.047,2.047,0,1,0,0,4.094c2.3,0,8.981.355,12.218,1.973a2.047,2.047,0,0,0,1.831-3.662Z" transform="translate(-392.751 -228.449)" fill="#c8a518"/>
        </g>
      </g>
      <g id="Group_1822" data-name="Group 1822" transform="translate(0 68.066)">
        <g id="Group_1821" data-name="Group 1821" transform="translate(0 0)">
          <path id="Path_2521" data-name="Path 2521" d="M133.507,143.4l-8.455-2.416a.858.858,0,0,1-.62-.822v-2.822a15.388,15.388,0,0,0,1.957-1.605,15.06,15.06,0,0,0,4.609-10.9v-3.894l.818-1.635a13.06,13.06,0,0,0,1.371-5.81v-10.55a2.047,2.047,0,0,0-2.047-2.047h-19.7a13.007,13.007,0,0,0-12.992,12.992v.122a10.858,10.858,0,0,0,1.14,4.831l1.048,2.1v3.344A15.973,15.973,0,0,0,107.2,137.2v2.958c0,.456,0,.645-1.69,1.128l-4.125,1.179-11.934-4.339a2.045,2.045,0,0,0-.558-1.567l-3.814-4.006v-6.726c.4-.332.8-.673,1.186-1.034a24.027,24.027,0,0,0,7.57-17.467v-5.371A23.664,23.664,0,0,0,96.028,92V70.113a2.047,2.047,0,0,0-2.047-2.047H63.336A19.58,19.58,0,0,0,43.778,87.624V92a23.664,23.664,0,0,0,2.189,9.951v4.621a25.015,25.015,0,0,0,8.756,19.092v6.884l-3.814,4.006a2.045,2.045,0,0,0-.558,1.567l-12.6,4.58a10.736,10.736,0,0,0-2.531,1.326l-1.978-.989c5.888-2.563,7.753-6.167,7.842-6.346a2.047,2.047,0,0,0,0-1.831c-1.476-2.952-1.655-8.362-1.8-12.709-.048-1.447-.093-2.814-.18-4.032-.7-9.819-8.163-17.224-17.364-17.224S5.081,108.3,4.383,118.124c-.087,1.218-.132,2.585-.18,4.032-.144,4.347-.323,9.757-1.8,12.708a2.047,2.047,0,0,0,0,1.831c.09.179,1.951,3.776,7.85,6.342l-5.494,2.747A8.569,8.569,0,0,0,0,153.489v15.124a2.047,2.047,0,0,0,4.094,0V153.489a4.5,4.5,0,0,1,2.5-4.043l6.841-3.42,2.38,2.261a8.61,8.61,0,0,0,11.868,0l2.379-2.261,2.231,1.115a10.78,10.78,0,0,0-1.646,5.716v15.757a2.047,2.047,0,0,0,4.094,0V152.858a6.729,6.729,0,0,1,4.416-6.3l13.28-4.829,5.528,8.293a4.221,4.221,0,0,0,3.107,1.866q.212.021.422.021a4.22,4.22,0,0,0,2.991-1.241l3.373-3.373v21.325a2.047,2.047,0,1,0,4.094,0V147.29l3.373,3.373a4.218,4.218,0,0,0,2.991,1.241q.21,0,.422-.021a4.221,4.221,0,0,0,3.107-1.866l5.528-8.292,13.28,4.829a6.729,6.729,0,0,1,4.416,6.3v15.757a2.047,2.047,0,0,0,4.094,0V152.858a10.822,10.822,0,0,0-3.028-7.49l.506-.144a11.228,11.228,0,0,0,1.9-.688l5.227,5.227v18.852a2.047,2.047,0,0,0,4.094,0V149.763l5.191-5.191a4.87,4.87,0,0,0,.871.346l8.455,2.416a4.539,4.539,0,0,1,3.278,4.346v16.935a2.047,2.047,0,0,0,4.094,0V151.679A8.652,8.652,0,0,0,133.507,143.4ZM13.133,139.78a14.717,14.717,0,0,1-6.57-4.218,22.566,22.566,0,0,0,1.167-4.9,15.266,15.266,0,0,0,5.4,6.666Zm11.728,5.541a4.518,4.518,0,0,1-6.227,0l-1.9-1.809a4.236,4.236,0,0,0,.5-2V139.33a15.223,15.223,0,0,0,9.039,0v2.18a4.236,4.236,0,0,0,.5,2Zm-3.113-9.4a11.1,11.1,0,0,1-11.086-11.086,2.035,2.035,0,0,0-2.383-2.017c.006-.176.012-.352.018-.527.046-1.408.09-2.737.171-3.878a15.2,15.2,0,0,1,4.139-9.545,12.72,12.72,0,0,1,18.283,0,15.2,15.2,0,0,1,4.139,9.545c.081,1.14.125,2.469.171,3.877l.012.365A18.4,18.4,0,0,0,25.1,115.268a25.692,25.692,0,0,0-7.787-1.234,2.047,2.047,0,0,0-1.417.625L12.2,118.49a2.047,2.047,0,0,0,2.947,2.842l3.074-3.187c2.647.129,11.162,1.12,14.474,8.412A11.059,11.059,0,0,1,21.748,135.922Zm8.613,3.864v-2.442a15.143,15.143,0,0,0,5.4-6.674,22.538,22.538,0,0,0,1.166,4.891A14.787,14.787,0,0,1,30.361,139.787Zm19.7-33.212V101.5a2.048,2.048,0,0,0-.2-.89A19.637,19.637,0,0,1,47.873,92V87.625A15.481,15.481,0,0,1,63.336,72.161h28.6V92a19.637,19.637,0,0,1-1.985,8.6,2.048,2.048,0,0,0-.2.89v5.829A19.654,19.654,0,0,1,83.47,121.8a20.376,20.376,0,0,1-1.572,1.331l-.035.026a19.684,19.684,0,0,1-13.284,3.963C58.195,126.451,50.061,117.425,50.061,106.575Zm11.527,41.192a.129.129,0,0,1-.114.041.13.13,0,0,1-.1-.063L55,138.195l2.049-2.153,9.659,6.6Zm8.315-7.9-11.086-7.578v-3.821a23.05,23.05,0,0,0,9.5,2.742q.809.052,1.611.052a23.713,23.713,0,0,0,11.065-2.712v3.74Zm8.533,7.879a.13.13,0,0,1-.1.063.126.126,0,0,1-.114-.041L73.1,142.645l9.659-6.6L84.8,138.2Zm37.382-1.727-4.646-4.645a5.616,5.616,0,0,0,.127-1.216v-.864a14.355,14.355,0,0,0,4.054.716c.158,0,.314.007.471.007a15.207,15.207,0,0,0,4.514-.683v.824a4.895,4.895,0,0,0,.148,1.193Zm7.72-13.226a11,11,0,0,1-8.062,3.124c-5.924-.178-10.744-5.4-10.744-11.632v-3.827a2.045,2.045,0,0,0-.216-.916l-1.265-2.529a6.744,6.744,0,0,1-.708-3v-.122a8.907,8.907,0,0,1,8.9-8.9h17.653v8.5a8.945,8.945,0,0,1-.939,3.979l-1.033,2.067a2.046,2.046,0,0,0-.216.915v4.378A11,11,0,0,1,123.538,132.793Z" transform="translate(0 -68.066)" fill="#c8a518"/>
        </g>
      </g>
      <g id="Group_1824" data-name="Group 1824" transform="translate(126.905 153.433)">
        <g id="Group_1823" data-name="Group 1823">
          <path id="Path_2522" data-name="Path 2522" d="M466.97,380.814a2.047,2.047,0,0,0-2.047,2.047v13.133a2.047,2.047,0,1,0,4.094,0V382.861A2.047,2.047,0,0,0,466.97,380.814Z" transform="translate(-464.923 -380.814)" fill="#c8a518"/>
        </g>
      </g>
      <g id="Group_1826" data-name="Group 1826" transform="translate(8.756 156.139)">
        <g id="Group_1825" data-name="Group 1825">
          <path id="Path_2523" data-name="Path 2523" d="M34.124,390.728a2.047,2.047,0,0,0-2.047,2.047V403.2a2.047,2.047,0,0,0,4.094,0V392.775A2.047,2.047,0,0,0,34.124,390.728Z" transform="translate(-32.077 -390.728)" fill="#c8a518"/>
        </g>
      </g>
      <g id="Group_1828" data-name="Group 1828" transform="translate(52.534 86.664)">
        <g id="Group_1827" data-name="Group 1827">
          <path id="Path_2524" data-name="Path 2524" d="M226.6,142.282c-7.743-7.743-23.943-6.262-30.549-5.267a4.2,4.2,0,0,0-3.591,4.187v4.716a2.047,2.047,0,1,0,4.094,0V141.2a.135.135,0,0,1,.107-.138,64.675,64.675,0,0,1,13.3-.65c6.384.425,11.008,2.028,13.743,4.763a2.047,2.047,0,0,0,2.895-2.895Z" transform="translate(-192.46 -136.203)" fill="#c8a518"/>
        </g>
      </g>
      <g id="Group_1830" data-name="Group 1830" transform="translate(43.778 157.811)">
        <g id="Group_1829" data-name="Group 1829">
          <path id="Path_2525" data-name="Path 2525" d="M162.431,396.853a2.047,2.047,0,0,0-2.047,2.047v8.756a2.047,2.047,0,0,0,4.094,0V398.9A2.047,2.047,0,0,0,162.431,396.853Z" transform="translate(-160.384 -396.853)" fill="#c8a518"/>
        </g>
      </g>
      <g id="Group_1832" data-name="Group 1832" transform="translate(91.934 157.811)">
        <g id="Group_1831" data-name="Group 1831">
          <path id="Path_2526" data-name="Path 2526" d="M338.853,396.853a2.047,2.047,0,0,0-2.047,2.047v8.756a2.047,2.047,0,0,0,4.094,0V398.9A2.047,2.047,0,0,0,338.853,396.853Z" transform="translate(-336.806 -396.853)" fill="#c8a518"/>
        </g>
      </g>
    </g>
  </g>
</svg>
