<svg xmlns="http://www.w3.org/2000/svg" xmlns:xlink="http://www.w3.org/1999/xlink" width="795.178" height="548.932" viewBox="0 0 795.178 548.932">
  <defs>
    <linearGradient id="linear-gradient" y1="0.5" x2="1" y2="0.5" gradientUnits="objectBoundingBox">
      <stop offset="0" stop-color="gray" stop-opacity="0.251"/>
      <stop offset="0.54" stop-color="gray" stop-opacity="0.122"/>
      <stop offset="1" stop-color="gray" stop-opacity="0.102"/>
    </linearGradient>
  </defs>
  <g id="undraw_authentication_fsn5" transform="translate(-0.001 0)">
    <path id="Path_2341" data-name="Path 2341" d="M466.684,122.2c-50.97.068-100.03-14.381-146.956-30.432S226.237,57.741,176.215,50.124c-32.171-4.9-68.753-4.446-93.9,13.33-24.206,17.1-31.216,45.406-34.6,71.555-2.543,19.672-3.716,40.319,5.81,58.313,6.614,12.492,17.933,22.788,25.911,34.693,27.848,41.417,11.1,94.323-15.963,136.7-12.69,19.883-27.554,38.941-37.148,59.963S12.8,469.541,22.583,490.29c9.7,20.565,31.6,35.491,55.1,45.685,47.731,20.743,103.3,25.188,157.382,26.9,119.709,3.8,239.649-3.948,359.27-11.694,44.267-2.864,88.732-5.748,132.085-14.046,24.07-4.6,48.856-11.435,65.923-26.409,21.663-19.01,26.1-50.049,10.33-72.36-26.436-37.421-96.143-44.478-115.1-84.967-10.453-22.29-1.439-47.853,11.837-69.339,28.475-46.1,77.487-87.395,78.313-138.958.566-35.409-24.922-69.953-62.991-85.342-39.9-16.119-94.309-11.974-122.266,18.069C563.721,108.778,511.687,122.15,466.684,122.2Z" transform="translate(-16.909 -47.454)" fill="#ee2a3e" opacity="0.1"/>
    <path id="Path_2342" data-name="Path 2342" d="M1001.655,691.416s-8.38-5.53-16.685-1.6c0,0,2.557,4.923,13.071,4.459Z" transform="translate(-324.88 -251.362)" fill="#ee2a3e"/>
    <path id="Path_2343" data-name="Path 2343" d="M1008.408,693.25s2.55,9.71-3.846,16.317c0,0-3.846-4,0-13.808Z" transform="translate(-330.569 -252.903)" fill="#ee2a3e"/>
    <path id="Path_2344" data-name="Path 2344" d="M1017.29,676.746s-.62-8.257-19.27-5.516c0,0-.089,5.325,6.457,7.848S1014.023,679.474,1017.29,676.746Z" transform="translate(-329.031 -245.72)" fill="#ee2a3e"/>
    <path id="Path_2345" data-name="Path 2345" d="M1025.449,679.5s7.882,2.53.852,20.02c0,0-5.2-1.159-6.137-8.121S1022,682.036,1025.449,679.5Z" transform="translate(-336.018 -248.529)" fill="#ee2a3e"/>
    <path id="Path_2346" data-name="Path 2346" d="M1035.034,656.582s1.071-13.589-17.988-12.2c0,0-1.364,12.274,14.626,15.465Z" transform="translate(-335.075 -237.325)" fill="#ee2a3e"/>
    <path id="Path_2347" data-name="Path 2347" d="M1051.8,634.376s-2.611-15.4-21.663-10.814c0,0-.068,13.317,18.554,14.483Z" transform="translate(-339.25 -230.461)" fill="#ee2a3e"/>
    <path id="Path_2348" data-name="Path 2348" d="M1064.562,611.264s-4.377-15-23.251-10.514c0,0,4.493,13.494,22,13.283Z" transform="translate(-342.804 -223.209)" fill="#ee2a3e"/>
    <path id="Path_2349" data-name="Path 2349" d="M1077.732,588.344s-4.275-15.567-22.5-10.91c0,0,6.082,14.79,21.295,13.542Z" transform="translate(-347.232 -215.781)" fill="#ee2a3e"/>
    <path id="Path_2350" data-name="Path 2350" d="M1087.029,565.06s-3.286-19.038-20.279-14.824c0,0,4.937,17.319,19.031,17.6Z" transform="translate(-350.897 -207.212)" fill="#ee2a3e"/>
    <path id="Path_2351" data-name="Path 2351" d="M1094.378,539.357s-3.948-19.188-21.138-13.637c0,0,6.737,18.138,19.917,16.263Z" transform="translate(-352.961 -199.285)" fill="#ee2a3e"/>
    <path id="Path_2352" data-name="Path 2352" d="M1099.876,513.212s-6.266-19.194-19.556-18.676c0,0,6.4,20.272,18.444,22.5Z" transform="translate(-355.214 -189.682)" fill="#ee2a3e"/>
    <path id="Path_2353" data-name="Path 2353" d="M1103.853,488.256s-6.819-23.1-17.633-21.322c0,0,4.719,17.66,17.251,24.922Z" transform="translate(-357.091 -180.873)" fill="#ee2a3e"/>
    <path id="Path_2354" data-name="Path 2354" d="M1105.867,460.66s-6.4-19.249-17.047-20.02c0,0,4.35,18.942,16.835,25.025Z" transform="translate(-357.918 -172.539)" fill="#ee2a3e"/>
    <path id="Path_2355" data-name="Path 2355" d="M1108.711,434.446s-7.971-19.27-15-19.706c0,0,3.464,18.976,14.319,22.87Z" transform="translate(-359.474 -164.3)" fill="#ee2a3e"/>
    <path id="Path_2356" data-name="Path 2356" d="M1111.426,408.545s-4.9-20.927-11.946-22.665c0,0,.961,17.122,11.237,24.234Z" transform="translate(-361.309 -155.118)" fill="#ee2a3e"/>
    <path id="Path_2357" data-name="Path 2357" d="M1115.832,378.029s-5.155-16.685-10.862-19.229c0,0,1.125,19.672,9.546,23.306Z" transform="translate(-363.056 -146.503)" fill="#ee2a3e"/>
    <path id="Path_2358" data-name="Path 2358" d="M1122.128,352.276l1.036-29.416s-10.671,22.174-1.807,34.577Z" transform="translate(-367.149 -135.07)" fill="#ee2a3e"/>
    <path id="Path_2359" data-name="Path 2359" d="M1134.273,312.509s7.685-21.479,9.546-22.679c0,0-15.069,13.937-13.6,31.864Z" transform="translate(-371.057 -124.562)" fill="#ee2a3e"/>
    <path id="Path_2360" data-name="Path 2360" d="M1042.759,662.15s13.515-1.766,13.112,17.333c0,0-12.212,1.991-16.2-13.808Z" transform="translate(-342.282 -242.995)" fill="#ee2a3e"/>
    <path id="Path_2361" data-name="Path 2361" d="M1061.4,639.06s15.615-.048,14.32,19.5c0,0-13.112,2.346-17.435-15.806Z" transform="translate(-348.202 -235.663)" fill="#ee2a3e"/>
    <path id="Path_2362" data-name="Path 2362" d="M1075.044,617.819s14.176-6.648,23.245,10.514c0,0-13.092,5.537-24.5-7.739Z" transform="translate(-353.136 -228.503)" fill="#ee2a3e"/>
    <path id="Path_2363" data-name="Path 2363" d="M1088.13,593.359s14.517-7.071,23.04,9.689c0,0-15.124,5.21-24.24-7.037Z" transform="translate(-357.317 -220.653)" fill="#ee2a3e"/>
    <path id="Path_2364" data-name="Path 2364" d="M1095.921,570.124s13.972-13.344,25.12.15c0,0-14.271,10.985-25.761,2.823Z" transform="translate(-359.973 -211.859)" fill="#ee2a3e"/>
    <path id="Path_2365" data-name="Path 2365" d="M1102.845,542.777s14.053-13.637,25.113.627c0,0-15.772,11.2-25.618,2.237Z" transform="translate(-362.219 -203.162)" fill="#ee2a3e"/>
    <path id="Path_2366" data-name="Path 2366" d="M1106.93,514.693s10.828-17.047,23.579-13.242c0,0-11.237,18.049-23.456,17.244Z" transform="translate(-363.679 -191.709)" fill="#ee2a3e"/>
    <path id="Path_2367" data-name="Path 2367" d="M1111.479,489.615s10.91-21.465,21.233-17.728c0,0-7.869,16.5-21.513,21.349Z" transform="translate(-365.038 -182.341)" fill="#ee2a3e"/>
    <path id="Path_2368" data-name="Path 2368" d="M1112.211,461.359s11.217-16.9,21.724-14.831c0,0-9.171,17.135-22.815,19.72Z" transform="translate(-365.012 -174.357)" fill="#ee2a3e"/>
    <path id="Path_2369" data-name="Path 2369" d="M1114,434.182s8.694-18.963,15.758-19.092c0,0-4.173,18.826-15.172,22.311Z" transform="translate(-365.928 -164.411)" fill="#ee2a3e"/>
    <path id="Path_2370" data-name="Path 2370" d="M1116.5,409.542s9.662-19.2,16.924-19.242c0,0-4.943,16.419-16.6,20.927Z" transform="translate(-366.724 -156.524)" fill="#ee2a3e"/>
    <path id="Path_2371" data-name="Path 2371" d="M1118.63,380.508s7.228-15.888,13.214-17.688c0,0-3.614,19.365-12.417,21.9Z" transform="translate(-367.401 -147.782)" fill="#ee2a3e"/>
    <path id="Path_2372" data-name="Path 2372" d="M1124.289,353.669l16.153-24.609s-4.139,24.274-18.513,29.32Z" transform="translate(-368.451 -137.042)" fill="#ee2a3e"/>
    <path id="Path_2373" data-name="Path 2373" d="M1138,318.979s18.772-12.955,19.454-15.049c0,0-9.546,18.145-27.275,21.349Z" transform="translate(-371.076 -129.047)" fill="#ee2a3e"/>
    <path id="Path_2374" data-name="Path 2374" d="M1143.058,307.791s21.554-20.722,27.057-20.7c0,0-17.776.811-27.575,19.6Z" transform="translate(-375.008 -123.69)" fill="#ee2a3e"/>
    <path id="Path_2375" data-name="Path 2375" d="M1118.94,368.354l.784.1c4.05-31.7,9.955-50.458,16.624-52.756l-.259-.75C1129.018,317.4,1123.072,335.877,1118.94,368.354Z" transform="translate(-367.5 -132.553)" fill="#444053"/>
    <path id="Path_2376" data-name="Path 2376" d="M1110.2,467.982l1.187.1c.252-2.959.443-5.987.573-9.007,1.132-26.238,2.884-50.335,5.189-68.4l-.682-.852c-2.311,18.1-4.562,42.923-5.693,69.2C1110.643,462.023,1110.452,465.037,1110.2,467.982Z" transform="translate(-364.72 -156.372)" fill="#444053"/>
    <path id="Path_2377" data-name="Path 2377" d="M976.7,646.961c.2-.089,21.09-9.417,42.767-31.659a171.984,171.984,0,0,0,31.263-44.321c10.023-20.408,16.133-45.487,18.179-69.85l-1.234.58c-4.6,54.686-29.5,92.052-49.292,112.406-21.465,22.045-42.119,31.277-42.324,31.366Z" transform="translate(-322.045 -191.783)" fill="#444053"/>
    <path id="Path_2378" data-name="Path 2378" d="M747.9,132.69H92.707a5.837,5.837,0,0,0-5.837,5.837v17.006H753.737V138.527A5.837,5.837,0,0,0,747.9,132.69Z" transform="translate(-39.166 -74.57)" fill="#3f3d56"/>
    <path id="Path_2379" data-name="Path 2379" d="M86.87,166.19V548.881A11.769,11.769,0,0,0,98.639,560.65H741.968a11.769,11.769,0,0,0,11.769-11.769V166.19Z" transform="translate(-39.166 -85.228)" fill="#fff"/>
    <ellipse id="Ellipse_65" data-name="Ellipse 65" cx="2.727" cy="2.727" rx="2.727" ry="2.727" transform="translate(55.539 66.643)" fill="#fa5959" opacity="0.8"/>
    <ellipse id="Ellipse_66" data-name="Ellipse 66" cx="2.727" cy="2.727" rx="2.727" ry="2.727" transform="translate(63.039 66.643)" fill="#fed253" opacity="0.8"/>
    <ellipse id="Ellipse_67" data-name="Ellipse 67" cx="2.727" cy="2.727" rx="2.727" ry="2.727" transform="translate(70.54 66.643)" fill="#8ccf4d" opacity="0.8"/>
    <rect id="Rectangle_129" data-name="Rectangle 129" width="535.948" height="235.667" transform="translate(109.693 144.771)" opacity="0.05"/>
    <rect id="Rectangle_130" data-name="Rectangle 130" width="527.766" height="230.471" transform="translate(113.784 146.558)" fill="#3f3d56"/>
    <path id="Path_2380" data-name="Path 2380" d="M370.284,349.38a52.5,52.5,0,1,0,52.5,52.5A52.5,52.5,0,0,0,370.284,349.38Zm9.417,53.765v24.861H361.14V403.145a15.376,15.376,0,1,1,18.56,0Z" transform="translate(-112.626 -143.506)" fill="#ee2a3e"/>
    <path id="Path_2381" data-name="Path 2381" d="M370.284,349.38a52.5,52.5,0,1,0,52.5,52.5A52.5,52.5,0,0,0,370.284,349.38Zm9.417,53.765v24.861H361.14V403.145a15.376,15.376,0,1,1,18.56,0Z" transform="translate(-112.626 -143.506)" opacity="0.05"/>
    <path id="Path_2382" data-name="Path 2382" d="M363.285,327.38a67.5,67.5,0,1,0,67.5,67.5,67.5,67.5,0,0,0-67.5-67.5Zm12.1,69.128v31.959H351.523V396.508a19.774,19.774,0,1,1,23.865,0Z" transform="translate(-105.627 -136.507)" fill="#ee2a3e"/>
    <rect id="Rectangle_131" data-name="Rectangle 131" width="218.198" height="23.183" transform="translate(353.12 249.52)" fill="#fff"/>
    <rect id="Rectangle_132" data-name="Rectangle 132" width="47.049" height="23.183" transform="translate(524.269 291.796)" fill="#ee2a3e"/>
    <path id="Path_2383" data-name="Path 2383" d="M561.667,427.653h-3.948l3.512-3.5a.348.348,0,0,0,0-.484.341.341,0,0,0-.484,0l-3.512,3.512v-3.955a.341.341,0,0,0-.341-.341.348.348,0,0,0-.341.341v3.955l-3.5-3.532a.341.341,0,0,0-.484,0,.348.348,0,0,0,0,.484l3.512,3.5h-3.955a.348.348,0,0,0-.341.341.341.341,0,0,0,.341.341h3.955l-3.512,3.512a.348.348,0,0,0,0,.484.354.354,0,0,0,.484,0l3.5-3.512v3.948a.341.341,0,0,0,.682,0V428.8l3.512,3.512a.354.354,0,0,0,.484,0,.348.348,0,0,0,0-.484l-3.512-3.512h3.948a.331.331,0,1,0,0-.661Z" transform="translate(-187.068 -166.889)" fill="#ee2a3e"/>
    <path id="Path_2384" data-name="Path 2384" d="M582.667,427.653h-3.948l3.512-3.5a.348.348,0,0,0,0-.484.341.341,0,0,0-.484,0l-3.512,3.512v-3.955a.341.341,0,0,0-.341-.341.348.348,0,0,0-.341.341v3.955l-3.5-3.532a.341.341,0,0,0-.484,0,.348.348,0,0,0,0,.484l3.512,3.5h-3.955a.348.348,0,0,0-.341.341.341.341,0,0,0,.341.341h3.955l-3.512,3.512a.348.348,0,0,0,0,.484.355.355,0,0,0,.484,0l3.5-3.512v3.948a.341.341,0,0,0,.682,0V428.8l3.512,3.512a.355.355,0,0,0,.484,0,.348.348,0,0,0,0-.484l-3.512-3.512h3.948a.331.331,0,1,0,0-.661Z" transform="translate(-193.749 -166.889)" fill="#ee2a3e"/>
    <path id="Path_2385" data-name="Path 2385" d="M603.667,427.653h-3.948l3.512-3.5a.348.348,0,0,0,0-.484.341.341,0,0,0-.484,0l-3.512,3.512v-3.955a.341.341,0,0,0-.341-.341.348.348,0,0,0-.341.341v3.955l-3.505-3.532a.341.341,0,0,0-.484,0,.348.348,0,0,0,0,.484l3.512,3.5h-3.955a.348.348,0,0,0-.341.341.341.341,0,0,0,.341.341h3.955l-3.512,3.512a.348.348,0,0,0,0,.484.354.354,0,0,0,.484,0l3.505-3.512v3.948a.341.341,0,1,0,.682,0V428.8l3.512,3.512a.354.354,0,0,0,.484,0,.348.348,0,0,0,0-.484l-3.512-3.512h3.948a.331.331,0,1,0,0-.661Z" transform="translate(-200.43 -166.889)" fill="#ee2a3e"/>
    <path id="Path_2386" data-name="Path 2386" d="M624.667,427.653h-3.948l3.512-3.5a.348.348,0,0,0,0-.484.341.341,0,0,0-.484,0l-3.512,3.512v-3.955a.341.341,0,0,0-.341-.341.348.348,0,0,0-.341.341v3.955l-3.5-3.532a.341.341,0,0,0-.484,0,.348.348,0,0,0,0,.484l3.512,3.5h-3.955a.348.348,0,0,0-.341.341.341.341,0,0,0,.341.341h3.955l-3.512,3.512a.348.348,0,0,0,0,.484.355.355,0,0,0,.484,0l3.5-3.512v3.948a.341.341,0,0,0,.682,0V428.8l3.512,3.512a.355.355,0,0,0,.484,0,.348.348,0,0,0,0-.484l-3.512-3.512h3.948a.331.331,0,1,0,0-.661Z" transform="translate(-207.111 -166.889)" fill="#ee2a3e"/>
    <path id="Path_2387" data-name="Path 2387" d="M645.667,427.653h-3.948l3.512-3.5a.348.348,0,0,0,0-.484.341.341,0,0,0-.484,0l-3.512,3.512v-3.955a.341.341,0,0,0-.341-.341.348.348,0,0,0-.341.341v3.955l-3.5-3.532a.341.341,0,0,0-.484,0,.348.348,0,0,0,0,.484l3.512,3.5h-3.955a.348.348,0,0,0-.341.341.341.341,0,0,0,.341.341h3.955l-3.512,3.512a.348.348,0,0,0,0,.484.355.355,0,0,0,.484,0l3.5-3.512v3.948a.341.341,0,1,0,.682,0V428.8l3.512,3.512a.355.355,0,0,0,.484,0,.348.348,0,0,0,0-.484l-3.512-3.512h3.948a.331.331,0,1,0,0-.661Z" transform="translate(-213.792 -166.889)" fill="#ee2a3e"/>
    <path id="Path_2388" data-name="Path 2388" d="M666.667,427.653h-3.948l3.512-3.5a.348.348,0,0,0,0-.484.341.341,0,0,0-.484,0l-3.512,3.512v-3.955a.341.341,0,0,0-.341-.341.348.348,0,0,0-.341.341v3.955l-3.5-3.532a.341.341,0,0,0-.484,0,.348.348,0,0,0,0,.484l3.512,3.5h-3.955a.348.348,0,0,0-.341.341.341.341,0,0,0,.341.341h3.955l-3.512,3.512a.348.348,0,0,0,0,.484.355.355,0,0,0,.484,0l3.5-3.512v3.948a.341.341,0,1,0,.682,0V428.8l3.512,3.512a.355.355,0,0,0,.484,0,.348.348,0,0,0,0-.484l-3.512-3.512h3.948a.331.331,0,1,0,0-.661Z" transform="translate(-220.472 -166.889)" fill="#ee2a3e"/>
    <path id="Path_2389" data-name="Path 2389" d="M687.667,427.653h-3.948l3.512-3.5a.348.348,0,0,0,0-.484.341.341,0,0,0-.484,0l-3.512,3.512v-3.955a.341.341,0,0,0-.341-.341.348.348,0,0,0-.341.341v3.955l-3.5-3.532a.341.341,0,0,0-.484,0,.347.347,0,0,0,0,.484l3.512,3.5h-3.955a.348.348,0,0,0-.341.341.341.341,0,0,0,.341.341h3.955l-3.512,3.512a.347.347,0,0,0,0,.484.355.355,0,0,0,.484,0l3.5-3.512v3.948a.341.341,0,0,0,.682,0V428.8l3.512,3.512a.354.354,0,0,0,.484,0,.348.348,0,0,0,0-.484l-3.512-3.512h3.948a.331.331,0,1,0,0-.661Z" transform="translate(-227.153 -166.889)" fill="#ee2a3e"/>
    <path id="Path_2390" data-name="Path 2390" d="M708.667,427.653h-3.948l3.512-3.5a.348.348,0,0,0,0-.484.341.341,0,0,0-.484,0l-3.512,3.512v-3.955a.341.341,0,0,0-.341-.341.348.348,0,0,0-.341.341v3.955l-3.5-3.532a.341.341,0,0,0-.484,0,.348.348,0,0,0,0,.484l3.512,3.5h-3.955a.348.348,0,0,0-.341.341.341.341,0,0,0,.341.341h3.955l-3.512,3.512a.348.348,0,0,0,0,.484.355.355,0,0,0,.484,0l3.5-3.512v3.948a.341.341,0,1,0,.682,0V428.8l3.512,3.512a.355.355,0,0,0,.484,0,.348.348,0,0,0,0-.484l-3.512-3.512h3.948a.331.331,0,1,0,0-.661Z" transform="translate(-233.834 -166.889)" fill="#ee2a3e"/>
    <path id="Path_2391" data-name="Path 2391" d="M729.667,427.653h-3.948l3.512-3.5a.348.348,0,0,0,0-.484.341.341,0,0,0-.484,0l-3.512,3.512v-3.955a.341.341,0,0,0-.341-.341.348.348,0,0,0-.341.341v3.955l-3.5-3.532a.341.341,0,0,0-.484,0,.348.348,0,0,0,0,.484l3.512,3.5h-3.955a.348.348,0,0,0-.341.341.341.341,0,0,0,.341.341h3.955l-3.512,3.512a.348.348,0,0,0,0,.484.355.355,0,0,0,.484,0l3.5-3.512v3.948a.341.341,0,1,0,.682,0V428.8l3.512,3.512a.355.355,0,0,0,.484,0,.348.348,0,0,0,0-.484l-3.512-3.512h3.948a.331.331,0,1,0,0-.661Z" transform="translate(-240.515 -166.889)" fill="#ee2a3e"/>
    <path id="Path_2392" data-name="Path 2392" d="M750.667,427.653h-3.948l3.512-3.5a.348.348,0,0,0,0-.484.341.341,0,0,0-.484,0l-3.512,3.512v-3.955a.341.341,0,0,0-.341-.341.347.347,0,0,0-.341.341v3.955l-3.5-3.532a.341.341,0,0,0-.484,0,.348.348,0,0,0,0,.484l3.512,3.5h-3.955a.348.348,0,0,0-.341.341.341.341,0,0,0,.341.341h3.955l-3.512,3.512a.348.348,0,0,0,0,.484.355.355,0,0,0,.484,0l3.5-3.512v3.948a.341.341,0,1,0,.682,0V428.8l3.512,3.512a.355.355,0,0,0,.484,0,.348.348,0,0,0,0-.484l-3.512-3.512h3.948a.331.331,0,1,0,0-.661Z" transform="translate(-247.195 -166.889)" fill="#ee2a3e"/>
    <path id="Path_2393" data-name="Path 2393" d="M771.667,427.653h-3.948l3.512-3.5a.348.348,0,0,0,0-.484.341.341,0,0,0-.484,0l-3.512,3.512v-3.955a.341.341,0,0,0-.341-.341.348.348,0,0,0-.341.341v3.955l-3.5-3.532a.341.341,0,0,0-.484,0,.348.348,0,0,0,0,.484l3.512,3.5h-3.955a.348.348,0,0,0-.341.341.341.341,0,0,0,.341.341h3.955l-3.512,3.512a.348.348,0,0,0,0,.484.355.355,0,0,0,.484,0l3.5-3.512v3.948a.341.341,0,1,0,.682,0V428.8l3.512,3.512a.354.354,0,0,0,.484,0,.348.348,0,0,0,0-.484l-3.512-3.512h3.948a.331.331,0,1,0,0-.661Z" transform="translate(-253.876 -166.889)" fill="#ee2a3e"/>
    <path id="Path_2394" data-name="Path 2394" d="M888.97,524.751a12.189,12.189,0,0,0-.307-2.448c-.614-2.3-2-5.094-4.275-5.789a35.887,35.887,0,0,1-6.778-2.864c-.409-7.31,1.268-14.79-.559-21.874-.682-2.591-1.807-5.073-2.107-7.726-.375-3.3.525-6.819-.791-9.86a9.73,9.73,0,0,0-5.762-4.978,30.7,30.7,0,0,0-7.685-1.364c-3.273-.266-13.869-1.521-17.565,1.4h0a3.853,3.853,0,0,0-.682.682h0a2.69,2.69,0,0,0-.218.354l-.034.055a2.743,2.743,0,0,0-.184.443h0a3.42,3.42,0,0,0-.116.511v1.227c.048.614.136,1.227.136,1.834a3.955,3.955,0,0,1-.082.9,6.3,6.3,0,0,1-1.132,2.209h0l-.123.177c-.075.109-.15.211-.218.321s-.123.191-.177.286-.109.157-.157.245a3.346,3.346,0,0,0-.177.348c0,.068-.075.13-.1.2a3.389,3.389,0,0,0-.2.573,3.808,3.808,0,0,0-.041,1.814,6.749,6.749,0,0,0,.934,2.148c.171.28.355.552.546.825l.477.648a14.7,14.7,0,0,0-.143,1.909,14.107,14.107,0,0,0,5.385,11.086,41.76,41.76,0,0,1-.087,8.654c-.061.6-.136,1.207-.218,1.807s-.143,1-.225,1.493a6.921,6.921,0,0,1-2.98-.225,14.059,14.059,0,0,0-1.364-.525c-1.984-.5-4.009,1.48-5.973.88a.8.8,0,0,1-.089.273,2.672,2.672,0,0,0-1.364-.4,4.974,4.974,0,0,1-2.959-1.7l-2.6-2.448a2.877,2.877,0,0,1-.45-.5,3.54,3.54,0,0,1-.313-.839,9.665,9.665,0,0,0-2.516-3.607,1.705,1.705,0,0,0-.743-.539,1.147,1.147,0,0,0-.341,0,2.978,2.978,0,0,0-.225-.273,6.429,6.429,0,0,0-.566-.573c-1.241-1.146-1.364-2.127-2.441-3.409a32.78,32.78,0,0,1-2.55-3.852c-.089-.716-.211-1.452-.361-2.2a28.256,28.256,0,0,0-1.493-4.978l-1.364-3.021-.157.157c-.989-1.473-2.046-2.277-2.993-2.087-1.589.327-2.373,3.409-2.121,7.439l.546,4.091a1.259,1.259,0,0,0,.075.307,7.56,7.56,0,0,0-.15,1.473c0,.573.532,1,.811,1.507a4.263,4.263,0,0,1,.682,2.325c-.034.293-.123.573-.136.859a3.305,3.305,0,0,0,.641,1.773l3.409,5.728.682,1.2.041.055a2.913,2.913,0,0,0,.914,1.05,12.487,12.487,0,0,0,1.125,4.139c.116.259.245.5.382.75a24.123,24.123,0,0,0,3.218,4.18l1.623,1.82c1.6,1.786,3.2,3.58,4.943,5.23a6.621,6.621,0,0,0,2.209,1.548,2.5,2.5,0,0,0,2.482-.361q0,1.268,0,2.537a1.425,1.425,0,0,1,1.077,2.243,56.246,56.246,0,0,1-5.046,10.678,22.734,22.734,0,0,1,4.228,3.225,19,19,0,0,1,2.2,2.98c.061.5.109,1,.136,1.5.5,8.128-2.639,16.194-5.455,23.94-.811,2.2-1.7,4.494-1.63,6.778a13.292,13.292,0,0,0-1.527,1.1,10.11,10.11,0,0,1,.28,4.323,7.659,7.659,0,0,1-.566,2.727,19.2,19.2,0,0,1-.982,1.752c-1.766,3.116-2.155,6.819-2.509,10.378-.211,2.148.62,4.773-.355,6.7-1.684,3.3-3.177,6.819-3.409,10.487a10.514,10.514,0,0,1-.314,2.448c-.211.682-.586,1.261-.777,1.93a8.251,8.251,0,0,0-.136,2.727,26.1,26.1,0,0,1-1.432,9.621c-.852,2.434-1.793,5.039-1.125,7.542a10.628,10.628,0,0,0-2.884,6.335,9.989,9.989,0,0,1-.218,1.807,8.782,8.782,0,0,1-.818,1.739,15.221,15.221,0,0,0-1.855,8.183,22.761,22.761,0,0,0-3.675,9.6c-.607,3.4-.873,6.866-1.65,10.228-1.036,4.446-2.912,8.939-3.28,13.494-2.209,1.411-3.164,4.146-3.587,6.73s-.491,5.3-1.575,7.685c-.559,1.241-1.364,2.353-1.9,3.621a16.623,16.623,0,0,0-.818,3.116,12.16,12.16,0,0,0-.211,5.114,7.71,7.71,0,0,1-2,1.521c.109-.423.2-.846.273-1.275-1.759,1.6-4.95,1.036-6.355,2.953a2.877,2.877,0,0,0,.682,3.948,5.46,5.46,0,0,0,1.412.607c3.409,1.091,6.914,2.189,10.419,1.609a3.108,3.108,0,0,0,1.18-.375,3.8,3.8,0,0,0,1.1-1.268q.787-1.248,1.568-2.5a32.384,32.384,0,0,0,3.825.893c.13,1.091.225,2.182.273,3.273.682.136,1.6.177,1.916-.457a1.658,1.658,0,0,0,.116-.757c0-.484.068-1.125.109-1.78h.136a12.952,12.952,0,0,0,6.035-1.221c-.73-6.041,1.677-11.946,3.764-17.66,2.2-6.014,4.091-12.137,5.994-18.261,1.364-4.309,2.871-8.482,4.207-12.8q2.523-8.183,5.066-16.365c.736-2.4,1.479-4.773,2.325-7.16a111.515,111.515,0,0,1,6.321-14.067c.682-1.289,1.364-2.564,1.923-3.9.682-1.63,1.166-3.334,1.711-5.019a77.722,77.722,0,0,1,4.282-10.078c.048-.089.082-.171.13-.253.552,2.257,1.1,4.548,1.473,6.819a25.9,25.9,0,0,1,.116,8.428,27.806,27.806,0,0,0-.873,5.714c.1,2.666,1.527,5.087,2.23,7.657a29.147,29.147,0,0,1,.764,5.864c.191,3.068,1.855,6.512.682,9.355-3.648,9.008-1.882,19.181-3.962,28.638-1.07,4.855-4.35,9.417-4.091,14.381q.273,5.285.927,10.542a10.035,10.035,0,0,0,.853,3.2,11.767,11.767,0,0,0,.934,1.527c-.3.116-.552.423-.77,1.07a4.207,4.207,0,0,0,1.514,4.773,6.632,6.632,0,0,0,1.971.682,10.38,10.38,0,0,0,2.85.4,6.638,6.638,0,0,0,.893-.109,32.514,32.514,0,0,0,3.225,1.159,7.034,7.034,0,0,0,.089.839,1.044,1.044,0,0,0,.355.77,1.062,1.062,0,0,0,.545.1h3.7V729a3.047,3.047,0,0,0,2.352-.764,3.64,3.64,0,0,0,.682-1.418q1.514-5.134,3.007-10.276a32.856,32.856,0,0,0,1.466-11.728c-1.316-12.567,1.575-25.175.634-37.775a90.49,90.49,0,0,1,1.159-22.665c.307-1.691.682-3.409.818-5.094.3-3.177-.068-6.389.157-9.546.075-1.1.225-2.2.361-3.3a158.47,158.47,0,0,0,1.466-20.558,64.7,64.7,0,0,0-.423-6.819,3.893,3.893,0,0,0,1.862-1.091c.607-.791.45-1.9.443-2.912,0-2.414,1.016-4.691,1.834-6.969a82.745,82.745,0,0,0,2.577-9.587,33.469,33.469,0,0,0,1.146-8.012q0-.409-.041-.818a2.114,2.114,0,0,0,.627-.682,3.96,3.96,0,0,0,.327-1.261c.245-1.739.5-3.484.743-5.23q.273-1.875.539-3.743l2.168-15.131c.184-1.316.375-2.625.559-3.934l.566-3.914c.062-.464.13-.927.177-1.364C890.736,531.624,889.147,527.915,888.97,524.751ZM870.88,581.4a12.464,12.464,0,0,1-1.364-5.925h-.075a3.043,3.043,0,0,0-.089-1.923c-.211-.5-.58-.92-.8-1.418a5.2,5.2,0,0,1-.368-1.909,52.052,52.052,0,0,1,.975-12.369c.088-.477.184-.961.273-1.439a3.56,3.56,0,0,0,.778-.607,5.536,5.536,0,0,0,.88-1.364c.77-1.548,1.473-3.123,2.12-4.725.211-.518.518-1.118,1.043-1.248-.109,3.989.3,8.06-1.323,11.66a7.389,7.389,0,0,0-.682,1.841c-.15,1.016.273,2.046.123,3.055-.075.525-.3,1.009-.389,1.528a1.493,1.493,0,0,0,.4,1.445,1.191,1.191,0,0,0,.293.15c-.041.273-.075.552-.1.818-.054.559-.082,1.084-.116,1.411a43.982,43.982,0,0,0-.184,5.019c0,1.807.068,3.614.041,5.455a3.7,3.7,0,0,1-.259,1.548,2.684,2.684,0,0,1-.518.682A17.673,17.673,0,0,0,870.88,581.4Z" transform="translate(-261.405 -181.038)" fill="url(#linear-gradient)"/>
    <ellipse id="Ellipse_68" data-name="Ellipse 68" cx="3.846" cy="10.889" rx="3.846" ry="10.889" transform="matrix(0.98, -0.201, 0.201, 0.98, 547.515, 300.681)" fill="#fbbebe"/>
    <path id="Path_2395" data-name="Path 2395" d="M878.3,838.6a4.128,4.128,0,0,0,1.514,4.725,6.741,6.741,0,0,0,1.957.682,10.332,10.332,0,0,0,2.844.389c1.18-.055,2.311-.518,3.491-.682a.545.545,0,0,1,.4.055.58.58,0,0,1,.15.477,18.04,18.04,0,0,0,.15,2,1.029,1.029,0,0,0,.355.771,1.063,1.063,0,0,0,.545.1h3.7a36.045,36.045,0,0,0-1.057-9.642,2.153,2.153,0,0,0-.273-.682,2.258,2.258,0,0,0-1.18-.682,6.6,6.6,0,0,0-2.857-.5,8.371,8.371,0,0,0-3.2,1.568,4.883,4.883,0,0,1-3.634.88C879.965,837.737,878.935,836.707,878.3,838.6Z" transform="translate(-290.878 -298.192)" fill="#3f3d56"/>
    <path id="Path_2396" data-name="Path 2396" d="M796.684,834.956a10.226,10.226,0,0,1-3.73,2.536l-.627.3a.435.435,0,0,0-.211.17.368.368,0,0,0,.068.307,4.412,4.412,0,0,0,5,1.82,2.654,2.654,0,0,0,1.1-.573,3.6,3.6,0,0,0,.845-2.2,4.494,4.494,0,0,0-.1-2.516C798.082,832.672,797.734,833.64,796.684,834.956Z" transform="translate(-263.524 -297.538)" fill="#fbbebe"/>
    <path id="Path_2397" data-name="Path 2397" d="M808.906,843.54a1.659,1.659,0,0,1-.116.757c-.32.627-1.214.593-1.909.457a45.874,45.874,0,0,0-.839-6.887c-1.323-.062-2.277,1.193-2.987,2.318l-1.827,2.9a3.777,3.777,0,0,1-1.091,1.268,3.233,3.233,0,0,1-1.18.375c-3.491.58-7.016-.518-10.385-1.609a5.5,5.5,0,0,1-1.411-.6,2.884,2.884,0,0,1-.682-3.941c1.411-1.909,4.582-1.364,6.341-2.946a15.881,15.881,0,0,1-.9,3.253c2.352-.355,3.934-2.509,5.83-3.948a3.587,3.587,0,0,1,1.664-.791,3.661,3.661,0,0,1,1.364.143,16,16,0,0,1,6,2.952,6.472,6.472,0,0,1,2.148,2.237C809.26,840.519,808.906,842.429,808.906,843.54Z" transform="translate(-261.576 -297.722)" fill="#3f3d56"/>
    <ellipse id="Ellipse_69" data-name="Ellipse 69" cx="14.087" cy="14.087" rx="14.087" ry="14.087" transform="translate(580.148 292.668)" fill="#fbbebe"/>
    <path id="Path_2398" data-name="Path 2398" d="M922.275,617.239a33.411,33.411,0,0,1-1.139,7.971,82.262,82.262,0,0,1-2.577,9.546c-.812,2.271-1.827,4.548-1.821,6.955,0,1,.164,2.114-.45,2.9a4.244,4.244,0,0,1-1.991,1.139,2.488,2.488,0,0,0-1.677,1.493,10.532,10.532,0,0,1-1.418-3.123q-1.834-5.619-3.409-11.3a1.467,1.467,0,0,1,.1-1.364,1.694,1.694,0,0,1,.593-.334,6.137,6.137,0,0,0,1.889-1.214A2.762,2.762,0,0,0,911,629.1a3.677,3.677,0,0,0,.266-1.541c0-1.807,0-3.607-.048-5.414a45.239,45.239,0,0,1,.191-5c0-.327.061-.852.116-1.412.1-1.07.307-2.312.887-2.727.866-.58,3.457.2,4.439.334,1.691.232,3.409.5,5.059.825A13.505,13.505,0,0,1,922.275,617.239Z" transform="translate(-300.287 -227.309)" fill="#3f3d56"/>
    <path id="Path_2399" data-name="Path 2399" d="M838.472,513.876c-.546,1.091-1.855,1.616-2.864,2.3l-3.457,2.373a2.3,2.3,0,0,1-1.711.586,2.25,2.25,0,0,1-1.275-1.193.24.24,0,0,0,0-.055l-.716-1.2-3.409-5.714a3.251,3.251,0,0,1-.634-1.759c0-.293.1-.566.13-.859a4.127,4.127,0,0,0-.682-2.318c-.273-.511-.818-.934-.8-1.507a5.456,5.456,0,0,1,.382-2.2,4.462,4.462,0,0,1,1.493-1.6c.32-.232.648-.45.989-.682a1.952,1.952,0,0,1,.593-.273c.566-.116,1.125.355,1.7.375,2.461,1.65,3.409,4.773,5.346,7.023,1.091,1.282,1.2,2.264,2.434,3.409.2.177.389.368.573.566a3.962,3.962,0,0,1,.614.886C837.4,512.628,838.752,513.316,838.472,513.876Z" transform="translate(-273.366 -191.348)" fill="#3f3d56"/>
    <path id="Path_2400" data-name="Path 2400" d="M878.167,513.163a12.7,12.7,0,0,1,1.514,6.866,4.29,4.29,0,0,1-.593,1.807c-.982,1.507-3.041,1.78-4.834,1.868a2.85,2.85,0,0,0-2.1.682,1.909,1.909,0,0,0,.129,2.332,5.265,5.265,0,0,0,2.087,1.364c2.837,1.248,5.9,2.277,8.98,1.991,1.432-.136,2.823-.552,4.248-.764a44.62,44.62,0,0,1,4.677-.259c1.855-.068,3.7-.252,5.551-.436l4.9-.484a1.09,1.09,0,0,0,.729-.266c.362-.423-.1-1.043-.552-1.364-2.6-1.923-5.9-3.246-7.385-6.137a36.119,36.119,0,0,1-1.4-4.459,37.459,37.459,0,0,1-1.623-4.3,28.54,28.54,0,0,1-.225-3.968,5.325,5.325,0,0,0-1.364-3.628,5.685,5.685,0,0,0-3.709-1.193c-3.259-.143-6.73.634-9.042,2.932-.62.62-1.152,1.364-1.793,1.923s-1.514.723-1.091,1.459,1.255,1.193,1.7,1.841A15.692,15.692,0,0,1,878.167,513.163Z" transform="translate(-288.882 -192.313)" fill="#fbbebe"/>
    <path id="Path_2401" data-name="Path 2401" d="M899.052,538.912a77.473,77.473,0,0,1-4.173,15.362,57.867,57.867,0,0,0-2.455,6.887c-.525,2.114-.423,4.378-.907,6.5-.6,2.639-1.2,5.285-1.684,7.944a52.087,52.087,0,0,0-.968,12.342,5.16,5.16,0,0,0,.368,1.9c.225.491.586.914.8,1.418a3.409,3.409,0,0,1-.191,2.727,7.9,7.9,0,0,1-1.4,2.128c-6.355,1.9-13.153,1.275-19.774,1.677-6.1.368-12.273,1.623-18.288.58-.682-2.727.457-5.585,1.432-8.244,2.83-7.726,5.96-15.772,5.455-23.865a24.709,24.709,0,0,0-.32-2.816c-.989-5.734.089-11.674,1.814-17.231a29.572,29.572,0,0,0,.777-10.76,19.635,19.635,0,0,1-.048-3.525,6.2,6.2,0,0,1,1.282-3.293c0-.048.061-.1.1-.143a.937.937,0,0,1,.511,0h0a.436.436,0,0,0,.341,0l.075-.048a.17.17,0,0,1,.2,0c.157.1.245.423.586.484a13.574,13.574,0,0,0,1.521.143,8.185,8.185,0,0,1,1.814.259h.082a5.325,5.325,0,0,0,2.646-.225,7.033,7.033,0,0,0,1.623-.627c.15-.164,1.091-.314,1.282-.429.62-.375.484-2.134.614-2.857a7.854,7.854,0,0,1,.511-2.114,3.6,3.6,0,0,1,2.918-1.7,15.538,15.538,0,0,1,3.5.314c2.543.361,5.148.3,7.644.886,1.255.293,2.625.736,3.778.164.314.075.361.348.361.682a4.354,4.354,0,0,1-.191.934c-.436,1.882,1.043,3.614,2.407,4.978a7.722,7.722,0,0,0,2.011,1.6c.682.314,1.364.443,2.046.784a3.721,3.721,0,0,1,1.364,1.248,5.21,5.21,0,0,1,.777,1.984,11.867,11.867,0,0,1-.225,3.948Z" transform="translate(-281.995 -198.226)" fill="#3f3d56"/>
    <path id="Path_2402" data-name="Path 2402" d="M902.046,542.194a77.471,77.471,0,0,1-4.173,15.362,57.84,57.84,0,0,0-2.455,6.887c-.525,2.114-.423,4.378-.907,6.5-.6,2.639-1.2,5.284-1.684,7.944-.143.082-.293.157-.443.225a10.474,10.474,0,0,1-2.673.859,16.366,16.366,0,0,1-4.991-.164l-9.73-1.3c-3.887-.525-8.026-1.159-10.91-3.791a23.279,23.279,0,0,1-3.8-5.2,24.785,24.785,0,0,0-.32-2.816c-.989-5.734.089-11.674,1.814-17.231a29.573,29.573,0,0,0,.777-10.76,19.658,19.658,0,0,1-.048-3.525,6.2,6.2,0,0,1,1.282-3.293,4.86,4.86,0,0,1,.607-.136h0a3.013,3.013,0,0,1,.416-.054h.2a2.97,2.97,0,0,1,.682.082,12.357,12.357,0,0,1,1.364.525h.082a5.223,5.223,0,0,0,1.814.259c.9,0,1.828-.143,2.728-.2a5.032,5.032,0,0,1,3.232.58,19.344,19.344,0,0,1,1.8,1.643,7.73,7.73,0,0,0,2.271,1.234,24.131,24.131,0,0,0,18.151-.382,3.551,3.551,0,0,1,1.821-.464,3.411,3.411,0,0,1,1.309.559c.409.239.811.471,1.227.682a5.2,5.2,0,0,1,.777,1.984A11.859,11.859,0,0,1,902.046,542.194Z" transform="translate(-284.988 -201.508)" opacity="0.1"/>
    <path id="Path_2403" data-name="Path 2403" d="M905.237,537.069a36.389,36.389,0,0,1-7.773-3.409,3.483,3.483,0,0,0-1.309-.559,3.662,3.662,0,0,0-1.828.464,24.117,24.117,0,0,1-18.144.382,7.888,7.888,0,0,1-2.271-1.234,20.377,20.377,0,0,0-1.8-1.643c-2.243-1.452-5.346.252-7.855-.682a13.869,13.869,0,0,0-1.364-.525c-1.984-.5-4,1.48-5.953.88a33.18,33.18,0,0,0-1.6,6.082,66.306,66.306,0,0,0-.443,7.173c0,1.439-.068,2.878,0,4.316a1.415,1.415,0,0,1,1.077,2.237,55.891,55.891,0,0,1-5.032,10.644,23.119,23.119,0,0,1,4.214,3.218c2.387,2.523,3.559,6.062,6.137,8.394,2.9,2.625,7.044,3.266,10.91,3.784l9.73,1.3a16.631,16.631,0,0,0,5,.171,10.527,10.527,0,0,0,2.666-.866,4.775,4.775,0,0,0,1.486-.982,5.455,5.455,0,0,0,.88-1.364c.771-1.541,1.473-3.116,2.12-4.712.225-.566.566-1.227,1.18-1.275,3.614-3.259,7.023-6.6,10.637-9.86a23.57,23.57,0,0,0,3.88-4.091c1.793-2.652.164-6.41,0-9.614a12.149,12.149,0,0,0-.307-2.434C908.885,540.54,907.508,537.758,905.237,537.069Z" transform="translate(-282.241 -200.898)" fill="#ee2a3e"/>
    <path id="Path_2404" data-name="Path 2404" d="M841.325,519.132c-.545,1.091-1.855,1.616-2.864,2.3L835,523.81a2.3,2.3,0,0,1-1.712.586,2.25,2.25,0,0,1-1.275-1.193v-.491a4.578,4.578,0,0,1,.218-1.63,5.08,5.08,0,0,1,1.527-1.964,12.5,12.5,0,0,1,4.48-2.728,1.535,1.535,0,0,1,.818-.082,1.081,1.081,0,0,1,.3.13,3.954,3.954,0,0,1,.614.886C840.248,517.885,841.6,518.573,841.325,519.132Z" transform="translate(-276.219 -196.605)" opacity="0.1"/>
    <path id="Path_2405" data-name="Path 2405" d="M849.861,526.525a4.965,4.965,0,0,1-2.952-1.691l-2.584-2.4a2.414,2.414,0,0,1-.45-.5,3.535,3.535,0,0,1-.314-.839,9.618,9.618,0,0,0-2.509-3.6,1.634,1.634,0,0,0-.743-.532,1.493,1.493,0,0,0-.825.082,12.47,12.47,0,0,0-4.48,2.727,5.092,5.092,0,0,0-1.527,1.964,4.537,4.537,0,0,0-.218,1.63,12.522,12.522,0,0,0,1.187,5.209c.116.252.245.5.382.75a23.6,23.6,0,0,0,3.2,4.166l1.623,1.814c1.6,1.786,3.191,3.573,4.923,5.216a6.5,6.5,0,0,0,2.209,1.541,2.468,2.468,0,0,0,2.536-.409,3.667,3.667,0,0,0,.723-1.3,25.5,25.5,0,0,0,2.107-8.5,32.126,32.126,0,0,0-.15-3.525C851.9,527.084,851.02,526.6,849.861,526.525Z" transform="translate(-276.614 -196.811)" fill="#ee2a3e"/>
    <path id="Path_2406" data-name="Path 2406" d="M880.021,656.34a157.562,157.562,0,0,1-1.459,20.5c-.136,1.1-.286,2.2-.362,3.294-.225,3.184.143,6.382-.157,9.546-.157,1.711-.511,3.409-.811,5.08a90.325,90.325,0,0,0-1.159,22.6c.941,12.567-1.943,25.14-.634,37.673a30.451,30.451,0,0,1-.4,7.289,30.887,30.887,0,0,1-1.057,4.4q-1.493,5.121-3,10.228a3.545,3.545,0,0,1-.682,1.418,3.232,3.232,0,0,1-2.557.757c-3.934-.123-7.637-1.821-11.21-3.478a3.905,3.905,0,0,1-1.125-.682c-.743-.771-.682-1.984-1.009-3a28.589,28.589,0,0,0-1.718-3.014,9.843,9.843,0,0,1-.743-3.1q-.682-5.237-.927-10.514c-.259-4.95,3.014-9.505,4.091-14.319,2.046-9.464.314-19.611,3.948-28.591,1.145-2.836-.518-6.273-.682-9.328a29.574,29.574,0,0,0-.764-5.85c-.682-2.564-2.121-4.978-2.223-7.637a28.053,28.053,0,0,1,.866-5.694,25.591,25.591,0,0,0-.116-8.407c-.362-2.291-.914-4.582-1.466-6.819l-.123.252a77.036,77.036,0,0,0-4.275,10.057c-.545,1.671-1.023,3.375-1.7,5-.559,1.364-1.248,2.612-1.923,3.893a111.83,111.83,0,0,0-6.307,14.012c-.845,2.359-1.589,4.773-2.325,7.139l-5.053,16.365c-1.364,4.3-2.857,8.462-4.193,12.758-1.889,6.137-3.778,12.219-5.973,18.22-2.046,5.694-4.48,11.592-3.75,17.606a12.953,12.953,0,0,1-6.021,1.221,35.25,35.25,0,0,1-10.228-2.482,7.952,7.952,0,0,1-3.532-2.1c-1.514-1.848-1.139-4.555-.682-6.907a16.689,16.689,0,0,1,.818-3.109c.518-1.255,1.364-2.366,1.9-3.607,1.07-2.38,1.139-5.073,1.561-7.657s1.364-5.312,3.573-6.716c.375-4.541,2.243-9.021,3.273-13.46.777-3.362,1.037-6.819,1.65-10.228a22.464,22.464,0,0,1,3.662-9.58,15.184,15.184,0,0,1,1.855-8.182,8.938,8.938,0,0,0,.812-1.739,10,10,0,0,0,.218-1.8,10.645,10.645,0,0,1,2.877-6.321c-.682-2.489.266-5.087,1.118-7.5a26.065,26.065,0,0,0,1.432-9.594,8.409,8.409,0,0,1,.13-2.727c.191-.682.566-1.261.784-1.916a10.909,10.909,0,0,0,.307-2.448c.266-3.689,1.759-7.166,3.409-10.46.982-1.923.15-4.534.355-6.675.355-3.559.743-7.241,2.509-10.344.327-.586.682-1.146.975-1.752a7.586,7.586,0,0,0,.566-2.727,10.045,10.045,0,0,0-.28-4.309c3.648-3.034,8.626-3.887,13.371-4.091s9.546.225,14.19-.784c1.364-.307,2.727-.729,4.166-.934,3.266-.477,6.58.266,9.805,1a11.679,11.679,0,0,0,1.364,5.912A63.465,63.465,0,0,1,880.021,656.34Z" transform="translate(-265.453 -231.164)" fill="#33313f"/>
    <path id="Path_2407" data-name="Path 2407" d="M890.263,673.29l-7.835,17.62c-.361-2.291-.914-4.582-1.466-6.819l-.122.252v-.368l4.268-9.389Z" transform="translate(-291.753 -246.553)" opacity="0.1"/>
    <path id="Path_2408" data-name="Path 2408" d="M924.051,617.239a2.946,2.946,0,0,1-1.555.58,7.562,7.562,0,0,1-2.55-.348l-6.137-1.534a3.01,3.01,0,0,1-.559-.2c.1-1.071.307-2.312.886-2.728.866-.58,3.457.2,4.439.334,1.691.232,3.409.5,5.059.825A13.511,13.511,0,0,1,924.051,617.239Z" transform="translate(-302.064 -227.309)" opacity="0.1"/>
    <path id="Path_2409" data-name="Path 2409" d="M928.943,558.794c.13.566.314,1.125.423,1.7a12.956,12.956,0,0,1-.143,4.221l-.559,3.9-.559,3.921-2.162,15.09-.532,3.737-.75,5.216a3.749,3.749,0,0,1-.327,1.255,2.611,2.611,0,0,1-2.134,1.262,7.731,7.731,0,0,1-2.55-.348l-6.137-1.541a1.924,1.924,0,0,1-.75-.307,1.48,1.48,0,0,1-.4-1.439c.089-.518.314-1,.389-1.521.15-1.009-.273-2.046-.123-3.048a7.6,7.6,0,0,1,.682-1.834c2.046-4.521.859-9.8,1.555-14.708A22.294,22.294,0,0,1,919.6,563.82a30.207,30.207,0,0,1,5.223-5.128c.764-.593,1.977-1.814,2.939-2.046C929,556.388,928.738,557.935,928.943,558.794Z" transform="translate(-301.767 -209.436)" fill="#ee2a3e"/>
    <path id="Path_2410" data-name="Path 2410" d="M865.622,472.055c-.45,1.432.252,3.007-.068,4.466-.348,1.609-1.861,2.728-2.291,4.343-.682,2.462,1.4,4.7,2.932,6.751,5.659,7.6,4.916,18.11,2.98,27.377a141.375,141.375,0,0,1-6.444,21.82,16.717,16.717,0,0,1-3.471,6.089c3.137-.9,6.471-1.807,9.614-.934,3.982,1.1,7.419,4.971,11.455,4.091,2.427-.539,4.132-2.693,6.314-3.887,4.091-2.2,9.021-.818,13.583-.109a5.332,5.332,0,0,0,2.966-.15,4.93,4.93,0,0,0,1.8-1.657,16.815,16.815,0,0,0,3.5-9.069,11.632,11.632,0,0,0-3.348-8.953,19.156,19.156,0,0,1-2.871-2.727,8.47,8.47,0,0,1-1.125-4.132c-.539-7.5,1.289-15.158-.593-22.413-.682-2.584-1.793-5.059-2.093-7.705-.375-3.293.518-6.819-.791-9.832a9.642,9.642,0,0,0-5.748-4.964,31.492,31.492,0,0,0-7.664-1.364C880.528,468.782,867.183,467.18,865.622,472.055Z" transform="translate(-284.887 -181.432)" fill="#33313f"/>
    <g id="Group_1700" data-name="Group 1700" transform="translate(574.372 289.061)" opacity="0.1">
      <path id="Path_2411" data-name="Path 2411" d="M870.81,519.722a141.081,141.081,0,0,1-6.41,21.731c.471-.934.866-1.916,1.241-2.891a140.627,140.627,0,0,0,6.444-21.82c1.943-9.273,2.687-19.774-2.973-27.377-1.364-1.814-3.116-3.778-3.055-5.9A7.266,7.266,0,0,0,864.9,485.6c-.682,2.462,1.4,4.7,2.932,6.751C873.489,499.941,872.746,510.455,870.81,519.722Z" transform="translate(-860.895 -475.223)"/>
      <path id="Path_2412" data-name="Path 2412" d="M868.526,476.719a6.637,6.637,0,0,0,1.2-2.3,11.681,11.681,0,0,0-.082-3.041,3.28,3.28,0,0,0-1.132,1.562C868.11,474.148,868.574,475.458,868.526,476.719Z" transform="translate(-862.151 -471.38)"/>
      <path id="Path_2413" data-name="Path 2413" d="M906.275,568.173a4.911,4.911,0,0,1-1.8,1.65,5.211,5.211,0,0,1-2.966.15c-4.562-.682-9.546-2.087-13.583.116-2.189,1.186-3.887,3.341-6.321,3.887-4.03.9-7.467-2.966-11.449-4.091-2.823-.784-5.8-.136-8.639.682a11.914,11.914,0,0,1-2.257,3.259c3.137-.9,6.471-1.807,9.614-.934,3.982,1.1,7.419,4.971,11.455,4.091,2.427-.539,4.132-2.693,6.314-3.887,4.091-2.2,9.021-.818,13.583-.109a5.332,5.332,0,0,0,2.966-.15,4.929,4.929,0,0,0,1.8-1.657,18.326,18.326,0,0,0,2.823-5.4A19.848,19.848,0,0,1,906.275,568.173Z" transform="translate(-859.26 -501.412)"/>
    </g>
  </g>
</svg>
