<svg xmlns="http://www.w3.org/2000/svg" xmlns:xlink="http://www.w3.org/1999/xlink" width="711" height="711" viewBox="0 0 711 711">
  <defs>
    <filter id="Subtraction_5" x="0" y="0" width="711" height="711" filterUnits="userSpaceOnUse">
      <feOffset dy="3" input="SourceAlpha"/>
      <feGaussianBlur stdDeviation="43.5" result="blur"/>
      <feFlood flood-color="#ee2a3e" flood-opacity="0.988"/>
      <feComposite operator="in" in2="blur"/>
      <feComposite in="SourceGraphic"/>
    </filter>
  </defs>
  <g transform="matrix(1, 0, 0, 1, 0, 0)" filter="url(#Subtraction_5)">
    <path id="Subtraction_5-2" data-name="Subtraction 5" d="M206,446a228.6,228.6,0,0,1-23-1.162,225.585,225.585,0,0,1-22.34-3.41c-7.249-1.483-14.5-3.349-21.563-5.544-6.98-2.171-13.935-4.717-20.672-7.566A225.657,225.657,0,0,1-1.318,308.58c-2.849-6.737-5.4-13.692-7.566-20.672-2.2-7.059-4.061-14.314-5.544-21.563a225.589,225.589,0,0,1-3.41-22.34,228.373,228.373,0,0,1,0-46.01,225.581,225.581,0,0,1,3.41-22.34c1.483-7.249,3.349-14.5,5.544-21.563,2.171-6.98,4.717-13.935,7.566-20.672A225.657,225.657,0,0,1,118.42,13.682c6.737-2.849,13.692-5.4,20.672-7.566,7.059-2.2,14.314-4.061,21.563-5.544A225.588,225.588,0,0,1,183-2.838a228.373,228.373,0,0,1,46.01,0,225.581,225.581,0,0,1,22.34,3.41c7.249,1.483,14.5,3.349,21.563,5.544,6.98,2.171,13.935,4.717,20.672,7.566A225.657,225.657,0,0,1,413.318,133.42c2.849,6.737,5.4,13.692,7.566,20.672,2.2,7.059,4.061,14.314,5.544,21.563a225.569,225.569,0,0,1,3.41,22.34,228.366,228.366,0,0,1,0,46.01,225.578,225.578,0,0,1-3.41,22.34c-1.483,7.249-3.349,14.5-5.544,21.563-2.171,6.98-4.717,13.935-7.566,20.672A225.658,225.658,0,0,1,293.58,428.319c-6.737,2.849-13.692,5.4-20.672,7.566-7.059,2.2-14.314,4.061-21.563,5.544a225.578,225.578,0,0,1-22.34,3.41A228.6,228.6,0,0,1,206,446Zm0-355.993C133.77,90.007,75.007,148.77,75.007,221S133.77,351.993,206,351.993,336.993,293.23,336.993,221,278.23,90.007,206,90.007Z" transform="translate(149.5 131.5)" fill="#ee2a3e" opacity="0.2"/>
  </g>
</svg>
