<svg xmlns="http://www.w3.org/2000/svg" xmlns:xlink="http://www.w3.org/1999/xlink" width="889" height="889" viewBox="0 0 889 889">
  <defs>
    <filter id="Subtraction_1" x="0" y="0" width="889" height="889" filterUnits="userSpaceOnUse">
      <feOffset dy="3" input="SourceAlpha"/>
      <feGaussianBlur stdDeviation="43.5" result="blur"/>
      <feFlood flood-color="#ee2a3e" flood-opacity="0.988"/>
      <feComposite operator="in" in2="blur"/>
      <feComposite in="SourceGraphic"/>
    </filter>
  </defs>
  <g transform="matrix(1, 0, 0, 1, 0, 0)" filter="url(#Subtraction_1)">
    <path id="Subtraction_1-2" data-name="Subtraction 1" d="M295,624a319.023,319.023,0,0,1-32.1-1.621,314.833,314.833,0,0,1-31.177-4.758c-10.116-2.07-20.241-4.673-30.092-7.737-9.741-3.03-19.447-6.582-28.849-10.559a314.917,314.917,0,0,1-167.1-167.1c-3.977-9.4-7.529-19.108-10.559-28.849-3.064-9.851-5.667-19.976-7.737-30.092A314.821,314.821,0,0,1-17.379,342.1a318.707,318.707,0,0,1,0-64.209,314.81,314.81,0,0,1,4.758-31.177c2.07-10.117,4.673-20.241,7.737-30.092,3.03-9.741,6.582-19.447,10.559-28.849a314.918,314.918,0,0,1,167.1-167.1c9.4-3.977,19.108-7.529,28.849-10.559C211.477,7.053,221.6,4.45,231.718,2.38A314.821,314.821,0,0,1,262.9-2.378a318.707,318.707,0,0,1,64.209,0A314.81,314.81,0,0,1,358.282,2.38c10.117,2.07,20.241,4.673,30.092,7.737,9.741,3.03,19.447,6.582,28.849,10.559a314.917,314.917,0,0,1,167.1,167.1c3.977,9.4,7.529,19.108,10.559,28.849,3.064,9.851,5.667,19.975,7.737,30.092a314.8,314.8,0,0,1,4.758,31.177,318.7,318.7,0,0,1,0,64.209,314.816,314.816,0,0,1-4.758,31.177c-2.07,10.116-4.673,20.241-7.737,30.092-3.03,9.741-6.582,19.447-10.559,28.849a314.918,314.918,0,0,1-167.1,167.1c-9.4,3.977-19.108,7.529-28.849,10.559-9.851,3.064-19.975,5.667-30.092,7.737a314.822,314.822,0,0,1-31.177,4.758A319.022,319.022,0,0,1,295,624Zm0-496.808C194.2,127.192,112.192,209.2,112.192,310S194.2,492.809,295,492.809,477.808,410.8,477.808,310,395.8,127.192,295,127.192Z" transform="translate(149.5 131.5)" fill="#ee2a3e" opacity="0.4"/>
  </g>
</svg>
