<svg xmlns="http://www.w3.org/2000/svg" xmlns:xlink="http://www.w3.org/1999/xlink" width="1520" height="1542" viewBox="0 0 1520 1542">
  <defs>
    <filter id="Subtraction_2" x="0" y="0" width="1520" height="1542" filterUnits="userSpaceOnUse">
      <feOffset dy="3" input="SourceAlpha"/>
      <feGaussianBlur stdDeviation="43.5" result="blur"/>
      <feFlood flood-color="#ee2a3e" flood-opacity="0.988"/>
      <feComposite operator="in" in2="blur"/>
      <feComposite in="SourceGraphic"/>
    </filter>
  </defs>
  <g transform="matrix(1, 0, 0, 1, 0, 0)" filter="url(#Subtraction_2)">
    <path id="Subtraction_2-2" data-name="Subtraction 2" d="M610.5,1277a628.678,628.678,0,0,1-64.363-3.307A617.017,617.017,0,0,1,423.306,1248.2c-19.529-6.18-38.987-13.427-57.836-21.538a626.246,626.246,0,0,1-106.93-59.054,638.629,638.629,0,0,1-170.032-173,644.18,644.18,0,0,1-58.04-108.8C22.5,866.634,15.375,846.835,9.3,826.965,3.158,806.871-2.061,786.219-6.211,765.583c-4.2-20.906-7.414-42.3-9.539-63.6C-17.907,680.381-19,658.348-19,636.5s1.093-43.882,3.25-65.487c2.125-21.293,5.335-42.69,9.539-63.6,4.15-20.636,9.369-41.288,15.512-61.382,6.074-19.87,13.2-39.669,21.168-58.846A642.256,642.256,0,0,1,165.377,183.6a636.5,636.5,0,0,1,93.164-78.211A626.222,626.222,0,0,1,365.47,46.334c18.848-8.112,38.307-15.358,57.836-21.538A617.032,617.032,0,0,1,546.138-.693a628.02,628.02,0,0,1,128.725,0A617.029,617.029,0,0,1,797.694,24.8c19.529,6.18,38.988,13.427,57.836,21.538A626.22,626.22,0,0,1,962.46,105.388a638.622,638.622,0,0,1,170.032,173,644.156,644.156,0,0,1,58.04,108.8c7.972,19.177,15.094,38.976,21.168,58.846,6.143,20.094,11.362,40.746,15.512,61.382,4.2,20.906,7.414,42.3,9.539,63.6,2.157,21.606,3.25,43.639,3.25,65.487s-1.094,43.882-3.25,65.487c-2.125,21.293-5.335,42.69-9.539,63.6-4.15,20.636-9.369,41.288-15.512,61.382-6.074,19.87-13.2,39.669-21.168,58.847a642.264,642.264,0,0,1-134.907,203.59,636.53,636.53,0,0,1-93.164,78.211,626.231,626.231,0,0,1-106.929,59.054c-18.848,8.111-38.307,15.358-57.836,21.538a617.014,617.014,0,0,1-122.831,25.489A628.675,628.675,0,0,1,610.5,1277Zm0-1013.394c-202.084,0-366.491,167.279-366.491,372.893S408.417,1009.394,610.5,1009.394,976.99,842.114,976.99,636.5,812.584,263.606,610.5,263.606Z" transform="translate(149.5 131.5)" fill="#ee2a3e" opacity="0.3"/>
  </g>
</svg>
