<svg xmlns="http://www.w3.org/2000/svg" xmlns:xlink="http://www.w3.org/1999/xlink" width="120.027" height="120.02" viewBox="0 0 120.027 120.02">
  <defs>
    <linearGradient id="linear-gradient" x2="1" y2="0.325" gradientUnits="objectBoundingBox">
      <stop offset="0" stop-color="#e5670f"/>
      <stop offset="1" stop-color="#d48f12"/>
    </linearGradient>
  </defs>
  <path id="Subtraction_41" data-name="Subtraction 41" d="M-260.986,213.019a60.232,60.232,0,0,1-12.1-1.219,59.637,59.637,0,0,1-11.264-3.5,59.767,59.767,0,0,1-10.191-5.533,60.017,60.017,0,0,1-8.883-7.328,60.029,60.029,0,0,1-7.33-8.882,59.691,59.691,0,0,1-5.534-10.194,59.409,59.409,0,0,1-3.5-11.263,60.544,60.544,0,0,1-1.22-12.1,60.521,60.521,0,0,1,1.22-12.093,59.475,59.475,0,0,1,3.5-11.265,59.98,59.98,0,0,1,5.534-10.193,60.039,60.039,0,0,1,7.33-8.882,60.25,60.25,0,0,1,8.883-7.327,59.929,59.929,0,0,1,10.191-5.533,59.463,59.463,0,0,1,11.264-3.494A60.424,60.424,0,0,1-260.986,93a60.361,60.361,0,0,1,12.092,1.222,59.308,59.308,0,0,1,11.265,3.494,60.023,60.023,0,0,1,10.193,5.533,60.242,60.242,0,0,1,8.882,7.327,60.068,60.068,0,0,1,7.329,8.882,59.983,59.983,0,0,1,5.535,10.193,59.946,59.946,0,0,1,3.5,11.265,60.457,60.457,0,0,1,1.217,12.093,60.479,60.479,0,0,1-1.217,12.1,59.879,59.879,0,0,1-3.5,11.263,59.892,59.892,0,0,1-5.535,10.194,60.057,60.057,0,0,1-7.329,8.882,60.014,60.014,0,0,1-8.882,7.328,59.78,59.78,0,0,1-10.193,5.533,59.507,59.507,0,0,1-11.265,3.5A60.169,60.169,0,0,1-260.986,213.019Zm0-112.593a52.861,52.861,0,0,0-10.6,1.071,52.052,52.052,0,0,0-9.87,3.062,52.4,52.4,0,0,0-8.928,4.847,52.726,52.726,0,0,0-7.784,6.42,52.416,52.416,0,0,0-6.422,7.786,52.5,52.5,0,0,0-4.85,8.931,52.061,52.061,0,0,0-3.064,9.87,53,53,0,0,0-1.07,10.6,53,53,0,0,0,1.07,10.6,51.966,51.966,0,0,0,3.064,9.867,52.273,52.273,0,0,0,4.85,8.934,52.3,52.3,0,0,0,6.422,7.781,52.216,52.216,0,0,0,7.784,6.421,52.223,52.223,0,0,0,8.928,4.849,52.118,52.118,0,0,0,9.87,3.064,52.8,52.8,0,0,0,10.6,1.068,52.8,52.8,0,0,0,10.6-1.068,52.038,52.038,0,0,0,9.87-3.064,52.406,52.406,0,0,0,8.933-4.849,52.481,52.481,0,0,0,7.781-6.421,52.647,52.647,0,0,0,6.423-7.781,52.8,52.8,0,0,0,4.851-8.934,52.689,52.689,0,0,0,3.064-9.867,53.192,53.192,0,0,0,1.065-10.6,53.2,53.2,0,0,0-1.065-10.6,52.788,52.788,0,0,0-3.064-9.87,52.894,52.894,0,0,0-4.851-8.931,52.76,52.76,0,0,0-6.423-7.786,53,53,0,0,0-7.781-6.42,52.634,52.634,0,0,0-8.933-4.847,51.972,51.972,0,0,0-9.87-3.062A52.86,52.86,0,0,0-260.987,100.427Z" transform="translate(321 -93)" fill="url(#linear-gradient)"/>
</svg>
